<svg width="200" height="150" viewBox="0 0 800 600" fill="none" xmlns="http://www.w3.org/2000/svg" data-reactroot="">
<path d="M691.472 315.518C691.472 373.702 748.628 528.69 701.741 569.16C646.417 616.913 575.433 570.186 465.556 551.702C326.925 540.406 212.443 579.936 157.488 536.299C105.538 495.047 182.133 411.018 182.133 315.517C190.348 189.209 149.036 145.534 209.859 102.95C261.426 66.8467 323.845 45.4436 411.13 20.7986C476.564 2.32376 629.703 8.50666 678.123 32.094C763.254 73.5651 691.472 234.664 691.472 315.518Z" fill="#760280" fill-opacity="0.1"></path>
<path d="M110.864 152.803C104.292 127.336 87.8997 114.633 79 112.237C79.0301 112.241 79.0603 112.246 79.0906 112.25C84.6605 112.834 141.876 74.8595 178.632 92.2166C215.6 109.674 260.79 148.182 260.79 185.151C260.79 222.119 272.086 255.493 274.653 326.348C277.221 397.204 250.247 403.71 250.247 403.71C260.142 430.923 257.703 519.3 255.777 533.099C254.237 544.138 238.13 537.271 232.416 540.199C237.11 531.592 262.192 500.52 250.247 429.569C222.403 360.196 156.426 412.094 156.426 360.196C156.426 279.414 74.4091 277.571 87.7587 228.099C102.395 173.859 119.079 184.637 110.864 152.803Z" fill="#63d4a5"></path>
<path d="M250.247 429.568C262.192 500.519 237.11 531.848 232.415 540.455C238.129 537.527 254.237 544.137 255.777 533.098C257.702 519.299 260.141 430.922 250.247 403.709C245.602 386.164 229.866 342.924 226.254 337.09C223.668 332.913 219.421 319.393 213.532 300.898C223.915 284.86 230.105 259.181 235.096 244.291C247.329 207.804 232.415 150.073 232.415 150.073C232.415 150.073 240.693 214.228 235.096 230.685C226.641 255.546 218.409 282.928 211.735 294.48C208.806 281.043 181.87 179.076 179.017 170.604C176.164 162.133 195.153 142.511 191.454 127.097C187.754 111.683 187.218 106.815 185.934 102.451C185.934 102.451 187.06 114.26 189.913 127.738C192.766 141.216 176.706 157.512 174.652 165.47C163.613 146.987 145.757 128.637 129.326 120.293C112.896 111.95 87.7373 112.463 87.7373 112.463C91.9305 113.276 115.439 115.913 127.786 121.705C138.183 126.583 150.929 138.737 157.309 145.837C166.779 156.376 175.61 172.723 181.87 192.169C185.037 202.01 192.986 241.847 195.561 253.79C195.561 253.79 171.686 210.66 156.539 194.743C141.392 178.826 117.937 162.719 117.937 162.719C117.937 162.719 141.904 184.49 154.485 197.824C167.066 211.158 187.235 252.661 196.251 257.012C200.108 275.15 198.695 266.643 204.671 289.112C209.083 305.703 215.009 317.583 222.403 336.337C214.573 327.591 196.268 317.891 179.017 295.379C164.068 275.872 112.322 249.384 101.857 244.291C108.45 247.899 139.952 268.901 144.73 272.274C151.276 276.895 167.207 291.015 174.652 300C182.097 308.985 218.795 337.61 224.314 346.467C229.834 355.324 230.978 356.937 232.415 360.195C243.415 385.127 246.515 407.403 250.247 429.568Z" fill="black" fill-opacity="0.2"></path>
<path d="M274.871 528.84V130.032C274.871 122.105 279.084 114.776 285.934 110.787L435.147 23.8888C449.994 15.2423 468.626 25.9525 468.626 43.1337V440.799C468.626 448.68 464.46 455.974 457.672 459.979L308.459 548.021C293.613 556.781 274.871 546.078 274.871 528.84Z" fill="#0ead69"></path>
<path d="M274.871 528.84V130.032C274.871 122.105 279.084 114.776 285.934 110.787L435.147 23.8888C449.994 15.2423 468.626 25.9525 468.626 43.1337V440.799C468.626 448.68 464.46 455.974 457.672 459.979L308.459 548.021C293.613 556.781 274.871 546.078 274.871 528.84Z" fill="white" fill-opacity="0.8"></path>
<path d="M285.441 535.346L288.147 135.803C288.2 127.966 292.368 120.734 299.122 116.76L446.248 30.1797C456.146 24.3552 468.625 31.4914 468.625 42.9756V440.788C468.625 448.675 464.454 455.973 457.658 459.976L307.823 548.239C297.887 554.092 285.363 546.878 285.441 535.346Z" fill="#0ead69"></path>
<path d="M285.441 535.346L288.147 135.803C288.2 127.966 292.368 120.734 299.122 116.76L446.248 30.1797C456.146 24.3552 468.625 31.4914 468.625 42.9756V440.788C468.625 448.675 464.454 455.973 457.658 459.976L307.823 548.239C297.887 554.092 285.363 546.878 285.441 535.346Z" fill="#2400FF" fill-opacity="0.2"></path>
<path d="M294.543 531.004V138.551C294.543 130.634 298.747 123.311 305.584 119.319L326.464 106.65C327.817 105.86 329.802 106.645 329.802 108.211C329.802 116.486 329.06 125.208 343.538 116.486L415.732 74.1715C421.042 71.0036 424.638 64.5025 424.235 60.1196C423.156 48.3747 427.549 48.1047 432.939 44.9572L445.189 37.8049C454.335 32.7853 460.658 38.6406 460.82 46.5679V437.779C460.987 445.952 456.663 453.56 449.555 457.598L307.851 538.75C301.913 542.123 294.543 537.834 294.543 531.004Z" fill="#FCFCFC" fill-opacity="0.6"></path>
<path d="M433.279 308.181L318.133 376.63C313.631 379.306 310.872 384.155 310.872 389.392L310.873 489.971C310.873 495.7 317.088 499.27 322.037 496.383L437.13 429.245C441.692 426.584 444.496 421.701 444.496 416.42L444.496 314.563C444.496 308.806 438.228 305.24 433.279 308.181Z" fill="#B5CDFB"></path>
<path d="M425.634 324.886L328.461 382.875C323.746 385.762 321.2 386.875 321.2 393.928L321.2 405.249C321.2 410.978 327.415 411.775 332.364 408.888L428.789 352.541C433.35 349.881 435.47 347.427 435.47 342.146V331.011C435.47 325.254 430.582 321.945 425.634 324.886Z" fill="white" fill-opacity="0.5"></path>
<path d="M427.148 359.998L329.975 417.986C325.26 420.873 322.715 421.986 322.715 429.039L322.715 440.36C322.715 446.089 328.93 446.886 333.879 443.999L430.303 387.652C434.865 384.992 436.985 382.538 436.985 377.257V366.122C436.985 360.365 432.097 357.056 427.148 359.998Z" fill="white" fill-opacity="0.5"></path>
<path d="M427.148 395.281L329.975 453.269C325.26 456.156 322.715 457.27 322.715 464.322L322.715 475.643C322.715 481.373 328.93 482.169 333.879 479.283L430.303 422.936C434.865 420.275 436.985 417.821 436.985 412.541V401.405C436.985 395.649 432.097 392.339 427.148 395.281Z" fill="white" fill-opacity="0.5"></path>
<path d="M511.633 41.5854L395.066 110.44C390.565 113.116 387.806 117.965 387.806 123.202V216.424C387.806 222.153 394.753 226.361 399.702 223.474L516.117 155.698C520.679 153.037 523.483 148.154 523.483 142.873V49.3997C523.483 43.643 516.582 38.6438 511.633 41.5854Z" fill="#63d4a5"></path>
<path d="M511.633 41.5854L395.066 110.44C390.565 113.116 387.806 117.965 387.806 123.202V216.424C387.806 222.153 394.753 226.361 399.702 223.474L516.117 155.698C520.679 153.037 523.483 148.154 523.483 142.873V49.3997C523.483 43.643 516.582 38.6438 511.633 41.5854Z" fill="white" fill-opacity="0.8"></path>
<path d="M512.275 43.0116C512.269 43.015 512.272 43.0135 512.266 43.017C512.075 43.1298 404.588 106.615 397.776 110.771C390.959 114.931 389.859 118.991 389.859 124.227V216.422C389.859 222.151 396.074 225.721 401.023 222.834L516.117 155.696C520.678 153.036 523.483 148.152 523.483 142.872V49.398C523.483 43.6448 517.222 40.0795 512.275 43.0116Z" fill="#63d4a5"></path>
<path d="M512.266 43.017C512.075 43.1298 404.588 106.615 397.776 110.771C390.959 114.931 389.859 118.991 389.859 124.228V128.357L523.483 51.7246V49.398C523.483 43.6448 517.222 40.0795 512.275 43.0116L512.266 43.017Z" fill="white" fill-opacity="0.2"></path>
<path d="M401.251 115.334C401.238 116.965 399.99 118.549 398.465 118.874C396.939 119.198 395.713 118.139 395.727 116.509C395.74 114.878 396.988 113.294 398.513 112.969C400.039 112.645 401.265 113.704 401.251 115.334Z" fill="#0ead69"></path>
<path d="M409.852 110.457C409.838 112.087 408.591 113.672 407.065 113.996C405.54 114.32 404.314 113.261 404.327 111.631C404.341 110 405.588 108.416 407.114 108.092C408.639 107.767 409.865 108.826 409.852 110.457Z" fill="#63d4a5"></path>
<path d="M417.969 105.836C417.956 107.466 416.708 109.051 415.182 109.375C413.657 109.699 412.431 108.64 412.444 107.01C412.458 105.379 413.705 103.795 415.231 103.471C416.756 103.146 417.982 104.205 417.969 105.836Z" fill="#B5CDFB"></path>
<path fill-rule="evenodd" clip-rule="evenodd" d="M509.626 83.9507C510.331 85.1808 509.905 86.7495 508.675 87.4546L405.215 146.758C403.985 147.463 402.417 147.037 401.711 145.807C401.006 144.577 401.432 143.008 402.662 142.303L506.122 83.0001C507.352 82.295 508.92 82.7206 509.626 83.9507ZM509.629 105.521C510.331 106.753 509.901 108.321 508.669 109.023L407.263 166.786C406.031 167.487 404.464 167.057 403.762 165.826C403.06 164.594 403.49 163.026 404.722 162.324L506.128 104.561C507.36 103.86 508.927 104.289 509.629 105.521ZM509.617 127.321C510.33 128.547 509.916 130.118 508.69 130.832L409.082 188.851C407.857 189.565 406.285 189.15 405.571 187.925C404.858 186.7 405.272 185.128 406.497 184.415L506.106 126.395C507.331 125.682 508.903 126.096 509.617 127.321Z" fill="#0ead69"></path>
<path d="M336.913 133.964L220.74 202.412C216.238 205.088 213.479 209.937 213.479 215.174V233.432C213.479 239.162 220.721 242.732 225.67 239.845L340.764 172.707C345.326 170.046 348.13 165.163 348.13 159.882V140.345C348.13 134.588 341.862 131.022 336.913 133.964Z" fill="#B5CDFB"></path>
<path d="M336.913 133.964L220.74 202.412C216.238 205.088 213.479 209.937 213.479 215.174V233.432C213.479 239.162 220.721 242.732 225.67 239.845L340.764 172.707C345.326 170.046 348.13 165.163 348.13 159.882V140.345C348.13 134.588 341.862 131.022 336.913 133.964Z" fill="white" fill-opacity="0.8"></path>
<path d="M336.914 134.991L221.767 203.439C217.266 206.115 214.507 210.964 214.507 216.201V233.433C214.507 239.162 220.722 242.732 225.671 239.845L340.765 172.707C345.326 170.046 348.131 165.163 348.131 159.882V141.372C348.131 135.615 341.862 132.049 336.914 134.991Z" fill="#B5CDFB"></path>
<path fill-rule="evenodd" clip-rule="evenodd" d="M336.226 150.718C336.931 151.948 336.506 153.516 335.276 154.221L231.816 213.525C230.586 214.23 229.017 213.804 228.312 212.574C227.607 211.344 228.033 209.775 229.263 209.07L332.722 149.767C333.952 149.062 335.521 149.487 336.226 150.718ZM335.13 164.122C335.832 165.354 335.402 166.922 334.17 167.624L232.764 225.386C231.532 226.088 229.964 225.658 229.263 224.426C228.561 223.194 228.991 221.627 230.223 220.925L331.628 163.162C332.86 162.46 334.428 162.89 335.13 164.122Z" fill="white" fill-opacity="0.5"></path>
<path d="M341.55 190.63L225.377 259.078C220.875 261.754 218.116 266.603 218.116 271.84V290.099C218.116 295.828 225.358 299.398 230.307 296.511L345.401 229.373C349.962 226.712 352.767 221.829 352.767 216.548V197.011C352.767 191.254 346.499 187.688 341.55 190.63Z" fill="#B5CDFB"></path>
<path d="M341.55 190.63L225.377 259.078C220.875 261.754 218.116 266.603 218.116 271.84V290.099C218.116 295.828 225.358 299.398 230.307 296.511L345.401 229.373C349.962 226.712 352.767 221.829 352.767 216.548V197.011C352.767 191.254 346.499 187.688 341.55 190.63Z" fill="white" fill-opacity="0.8"></path>
<path d="M341.55 191.656L226.403 260.105C221.901 262.781 219.143 267.63 219.143 272.867V290.098C219.143 295.828 225.358 299.398 230.307 296.511L345.4 229.373C349.962 226.712 352.766 221.829 352.766 216.548V198.038C352.766 192.281 346.498 188.715 341.55 191.656Z" fill="#B5CDFB"></path>
<path fill-rule="evenodd" clip-rule="evenodd" d="M340.862 207.384C341.567 208.614 341.141 210.182 339.911 210.887L236.452 270.191C235.222 270.896 233.653 270.47 232.948 269.24C232.243 268.01 232.668 266.441 233.898 265.736L337.358 206.433C338.588 205.728 340.157 206.153 340.862 207.384ZM339.766 220.788C340.467 222.02 340.037 223.588 338.805 224.29L237.4 282.052C236.168 282.754 234.6 282.324 233.898 281.092C233.197 279.86 233.626 278.293 234.858 277.591L336.264 219.828C337.496 219.126 339.064 219.556 339.766 220.788Z" fill="white" fill-opacity="0.5"></path>
<path d="M522.373 176.191L405.806 245.045C401.305 247.721 398.546 252.571 398.546 257.808V351.029C398.546 356.758 405.493 360.966 410.442 358.079L526.858 290.303C531.419 287.642 534.224 282.759 534.224 277.479V184.005C534.224 178.248 527.322 173.249 522.373 176.191Z" fill="#63d4a5"></path>
<path d="M522.373 176.191L405.806 245.045C401.305 247.721 398.546 252.571 398.546 257.808V351.029C398.546 356.758 405.493 360.966 410.442 358.079L526.858 290.303C531.419 287.642 534.224 282.759 534.224 277.479V184.005C534.224 178.248 527.322 173.249 522.373 176.191Z" fill="white" fill-opacity="0.8"></path>
<path d="M523.016 177.617C523.01 177.62 523.012 177.619 523.006 177.622C522.815 177.735 415.328 241.22 408.516 245.376C401.699 249.536 400.6 253.596 400.6 258.833V351.027C400.6 356.757 406.815 360.326 411.764 357.44L526.857 290.302C531.419 287.641 534.224 282.758 534.224 277.477V184.003C534.224 178.25 527.963 174.685 523.016 177.617Z" fill="#63d4a5"></path>
<path d="M523.006 177.622C522.815 177.735 415.328 241.22 408.516 245.376C401.699 249.536 400.6 253.596 400.6 258.833V262.962L534.224 186.33V184.003C534.224 178.25 527.963 174.685 523.016 177.617L523.006 177.622Z" fill="white" fill-opacity="0.2"></path>
<path d="M412.155 250.884C412.142 252.515 410.895 254.1 409.369 254.424C407.843 254.748 406.618 253.689 406.631 252.059C406.644 250.428 407.892 248.844 409.417 248.519C410.943 248.195 412.169 249.254 412.155 250.884Z" fill="#0ead69"></path>
<path d="M420.756 246.006C420.743 247.637 419.495 249.222 417.97 249.546C416.444 249.87 415.218 248.811 415.232 247.181C415.245 245.55 416.492 243.966 418.018 243.641C419.544 243.317 420.769 244.376 420.756 246.006Z" fill="#63d4a5"></path>
<path d="M428.873 241.386C428.86 243.016 427.612 244.601 426.087 244.925C424.561 245.249 423.335 244.19 423.349 242.56C423.362 240.929 424.61 239.345 426.135 239.021C427.661 238.696 428.887 239.755 428.873 241.386Z" fill="#B5CDFB"></path>
<path d="M670.44 41.0334L553.873 109.888C549.371 112.564 546.612 117.413 546.612 122.65V215.872C546.612 221.601 553.559 225.809 558.508 222.922L674.924 155.146C679.485 152.485 682.29 147.602 682.29 142.321V48.8477C682.29 43.091 675.388 38.0918 670.44 41.0334Z" fill="#0ead69"></path>
<path d="M670.44 41.0334L553.873 109.888C549.371 112.564 546.612 117.413 546.612 122.65V215.872C546.612 221.601 553.559 225.809 558.508 222.922L674.924 155.146C679.485 152.485 682.29 147.602 682.29 142.321V48.8477C682.29 43.091 675.388 38.0918 670.44 41.0334Z" fill="white" fill-opacity="0.5"></path>
<path d="M671.082 42.4593C671.076 42.4628 671.079 42.4613 671.073 42.4647C670.882 42.5776 563.395 106.063 556.583 110.219C549.765 114.379 548.666 118.438 548.666 123.675V215.87C548.666 221.599 554.881 225.169 559.83 222.282L674.924 155.144C679.485 152.483 682.29 147.6 682.29 142.319V48.8458C682.29 43.0925 676.029 39.5273 671.082 42.4593Z" fill="#0ead69"></path>
<path d="M671.082 42.4593C671.076 42.4628 671.079 42.4613 671.073 42.4647C670.882 42.5776 563.395 106.063 556.583 110.219C549.765 114.379 548.666 118.438 548.666 123.675V215.87C548.666 221.599 554.881 225.169 559.83 222.282L674.924 155.144C679.485 152.483 682.29 147.6 682.29 142.319V48.8458C682.29 43.0925 676.029 39.5273 671.082 42.4593Z" fill="#5302FF" fill-opacity="0.2"></path>
<path d="M671.073 42.4647C670.882 42.5776 563.395 106.063 556.583 110.219C549.765 114.379 548.666 118.438 548.666 123.675V127.804L682.29 51.1724V48.8458C682.29 43.0925 676.029 39.5273 671.082 42.4593L671.073 42.4647Z" fill="white" fill-opacity="0.5"></path>
<path d="M560.029 115.334C560.015 116.965 558.768 118.549 557.242 118.873C555.716 119.198 554.491 118.139 554.504 116.508C554.517 114.878 555.765 113.293 557.29 112.969C558.816 112.645 560.042 113.704 560.029 115.334Z" fill="#0ead69"></path>
<path d="M568.628 110.456C568.615 112.087 567.367 113.671 565.842 113.996C564.316 114.32 563.09 113.261 563.104 111.63C563.117 110 564.365 108.415 565.89 108.091C567.416 107.767 568.641 108.826 568.628 110.456Z" fill="#63d4a5"></path>
<path d="M576.745 105.835C576.732 107.466 575.484 109.05 573.959 109.374C572.433 109.699 571.207 108.64 571.221 107.009C571.234 105.379 572.482 103.794 574.007 103.47C575.533 103.146 576.759 104.205 576.745 105.835Z" fill="#B5CDFB"></path>
<path fill-rule="evenodd" clip-rule="evenodd" d="M662.859 96.1887C663.571 97.4146 663.155 98.9859 661.929 99.6982L623.934 121.776C622.708 122.489 621.137 122.072 620.424 120.847C619.712 119.621 620.128 118.049 621.354 117.337L659.349 95.2588C660.575 94.5465 662.146 94.9628 662.859 96.1887ZM660.828 114.2C661.518 115.438 661.073 117.002 659.835 117.692L623.893 137.716C622.655 138.406 621.091 137.962 620.401 136.723C619.711 135.484 620.156 133.921 621.394 133.231L657.336 113.207C658.574 112.516 660.138 112.961 660.828 114.2ZM648.77 137.577C649.452 138.82 648.997 140.38 647.754 141.062L623.878 154.155C622.635 154.837 621.075 154.381 620.393 153.138C619.711 151.895 620.166 150.335 621.409 149.653L645.285 136.56C646.528 135.878 648.088 136.333 648.77 137.577Z" fill="white" fill-opacity="0.5"></path>
<path d="M567.192 182.935V148.743C567.192 145.927 568.673 143.319 571.09 141.875L598.11 125.738C600.776 124.146 604.161 126.067 604.161 129.172V163.74C604.161 166.585 602.649 169.216 600.192 170.65L573.208 186.39C570.541 187.946 567.192 186.022 567.192 182.935Z" fill="white" fill-opacity="0.49"></path>
<path d="M573.983 170.138V176.568L597.987 162.961V157.608C597.987 154.569 594.803 152.583 592.074 153.918L578.861 161.293C575.339 163.017 573.983 166.218 573.983 170.138Z" fill="#B5CDFB"></path>
<path d="M589.496 150.461C589.145 154.816 586.382 158.146 583.326 157.899C580.27 157.652 578.078 153.922 578.43 149.567C578.781 145.213 581.544 141.883 584.6 142.13C587.656 142.376 589.848 146.107 589.496 150.461Z" fill="#B5CDFB"></path>
<path d="M417.969 327.167V311.165C417.969 309.386 418.928 306.717 420.478 305.844L437.192 297.006C438.835 296.081 440.866 298.295 440.866 300.18V317.502C440.866 319.399 439.777 321.127 438.066 321.947L421.691 329.756C420.056 330.539 417.969 328.98 417.969 327.167Z" fill="#0ead69"></path>
<path d="M417.969 327.167V311.165C417.969 309.386 418.928 306.717 420.478 305.844L437.192 297.006C438.835 296.081 440.866 298.295 440.866 300.18V317.502C440.866 319.399 439.777 321.127 438.066 321.947L421.691 329.756C420.056 330.539 417.969 328.98 417.969 327.167Z" fill="white" fill-opacity="0.5"></path>
<path d="M418.771 327.156V310.79C418.771 309.011 419.692 307.171 421.242 306.297L437.191 297.827C438.834 296.901 440.866 298.293 440.866 300.179V317.5C440.866 319.397 439.777 321.126 438.066 321.945L422.525 329.388C420.889 330.171 418.771 328.97 418.771 327.156Z" fill="#B5CDFB"></path>
<path d="M416.773 290.822V274.82C416.773 273.041 417.733 270.373 419.283 269.5L435.997 260.662C437.639 259.736 439.67 261.95 439.67 263.836V281.157C439.67 283.054 438.581 284.783 436.87 285.602L420.496 293.411C418.86 294.195 416.773 292.636 416.773 290.822Z" fill="#0ead69"></path>
<path d="M416.773 290.822V274.82C416.773 273.041 417.733 270.373 419.283 269.5L435.997 260.662C437.639 259.736 439.67 261.95 439.67 263.836V281.157C439.67 283.054 438.581 284.783 436.87 285.602L420.496 293.411C418.86 294.195 416.773 292.636 416.773 290.822Z" fill="white" fill-opacity="0.5"></path>
<path d="M417.576 290.812V274.445C417.576 272.666 418.497 270.826 420.047 269.953L435.996 261.482C437.639 260.557 439.671 261.949 439.671 263.834V281.156C439.671 283.053 438.582 284.781 436.871 285.601L421.329 293.043C419.694 293.827 417.576 292.625 417.576 290.812Z" fill="#B5CDFB"></path>
<path d="M455.964 306.827V290.826C455.964 289.046 456.923 286.378 458.473 285.505L475.187 276.667C476.83 275.742 478.861 277.955 478.861 279.841V297.162C478.861 299.059 477.772 300.788 476.061 301.607L459.686 309.417C458.051 310.2 455.964 308.641 455.964 306.827Z" fill="#0ead69"></path>
<path d="M455.964 306.827V290.826C455.964 289.046 456.923 286.378 458.473 285.505L475.187 276.667C476.83 275.742 478.861 277.955 478.861 279.841V297.162C478.861 299.059 477.772 300.788 476.061 301.607L459.686 309.417C458.051 310.2 455.964 308.641 455.964 306.827Z" fill="white" fill-opacity="0.5"></path>
<path d="M456.767 306.817V290.451C456.767 288.671 457.687 286.831 459.238 285.958L475.186 277.488C476.829 276.562 478.861 277.954 478.861 279.84V297.161C478.861 299.058 477.772 300.787 476.061 301.606L460.52 309.048C458.884 309.832 456.767 308.63 456.767 306.817Z" fill="#B5CDFB"></path>
<path d="M454.769 270.481V254.479C454.769 252.7 455.728 250.032 457.278 249.158L473.992 240.321C475.634 239.395 477.665 241.609 477.665 243.494V260.816C477.665 262.713 476.577 264.441 474.866 265.261L458.491 273.07C456.855 273.853 454.769 272.294 454.769 270.481Z" fill="#0ead69"></path>
<path d="M454.769 270.481V254.479C454.769 252.7 455.728 250.032 457.278 249.158L473.992 240.321C475.634 239.395 477.665 241.609 477.665 243.494V260.816C477.665 262.713 476.577 264.441 474.866 265.261L458.491 273.07C456.855 273.853 454.769 272.294 454.769 270.481Z" fill="white" fill-opacity="0.5"></path>
<path d="M455.571 270.47V254.104C455.571 252.325 456.492 250.485 458.042 249.611L473.991 241.141C475.634 240.216 477.666 241.608 477.666 243.493V260.814C477.666 262.711 476.577 264.44 474.866 265.259L459.324 272.702C457.689 273.485 455.571 272.284 455.571 270.47Z" fill="#B5CDFB"></path>
<path d="M493.959 286.488V270.486C493.959 268.707 494.918 266.039 496.468 265.165L513.182 256.328C514.825 255.402 516.856 257.616 516.856 259.502V276.823C516.856 278.72 515.767 280.449 514.056 281.268L497.681 289.077C496.046 289.861 493.959 288.301 493.959 286.488Z" fill="#0ead69"></path>
<path d="M493.959 286.488V270.486C493.959 268.707 494.918 266.039 496.468 265.165L513.182 256.328C514.825 255.402 516.856 257.616 516.856 259.502V276.823C516.856 278.72 515.767 280.449 514.056 281.268L497.681 289.077C496.046 289.861 493.959 288.301 493.959 286.488Z" fill="white" fill-opacity="0.5"></path>
<path d="M494.762 286.477V270.111C494.762 268.332 495.682 266.492 497.233 265.619L513.182 257.148C514.824 256.223 516.856 257.615 516.856 259.5V276.821C516.856 278.719 515.768 280.447 514.057 281.267L498.515 288.709C496.879 289.492 494.762 288.291 494.762 286.477Z" fill="#B5CDFB"></path>
<path d="M492.764 250.144V234.142C492.764 232.363 493.723 229.695 495.273 228.821L511.987 219.983C513.629 219.058 515.661 221.272 515.661 223.157V240.479C515.661 242.376 514.572 244.104 512.861 244.924L496.486 252.733C494.85 253.516 492.764 251.957 492.764 250.144Z" fill="#0ead69"></path>
<path d="M492.764 250.144V234.142C492.764 232.363 493.723 229.695 495.273 228.821L511.987 219.983C513.629 219.058 515.661 221.272 515.661 223.157V240.479C515.661 242.376 514.572 244.104 512.861 244.924L496.486 252.733C494.85 253.516 492.764 251.957 492.764 250.144Z" fill="white" fill-opacity="0.5"></path>
<path d="M493.566 250.133V233.767C493.566 231.987 494.487 230.147 496.037 229.274L511.986 220.804C513.629 219.878 515.661 221.27 515.661 223.156V240.477C515.661 242.374 514.572 244.103 512.861 244.922L497.32 252.365C495.684 253.148 493.566 251.946 493.566 250.133Z" fill="#B5CDFB"></path>
<path d="M619.79 289.039C623.834 288.689 628.606 286.725 631.691 284.961C634.25 283.499 641.389 278.394 644.996 273.513C645.644 272.31 646.239 271.277 646.704 270.559C646.331 271.512 645.739 272.508 644.996 273.513C642.865 277.464 640.148 283.239 639.515 285.623C637.642 292.675 643.364 294.328 646.145 296.202C648.925 298.075 659.296 302.869 661.831 304.632C658.505 303.172 654.868 306.146 653.731 307.663C652.594 309.179 650.756 312.401 650.205 316.809C649.654 321.217 651.665 328.711 652.657 331.025C651.429 334.808 649.191 351.125 648.662 352.624C647.514 355.875 646.145 375.33 646.145 375.33V382.818C646.145 382.818 621.002 385.353 614.059 384.802C607.117 384.251 600.174 381.496 600.174 381.496L601.376 374.443V363.699C601.597 352.679 596.978 337.527 598.19 327.829C599.142 320.215 598.962 318.609 598.962 315.927C602.231 311.887 602.819 308.875 604.141 304.577C605.464 300.279 605.133 293.667 605.133 291.684C609.324 292.235 614.497 292.455 616.484 291.684C618.47 290.912 619.79 289.039 619.79 289.039Z" fill="#ECB3B5"></path>
<path d="M666.375 441.344C666.375 441.344 668.928 438.75 669.376 437.77C669.824 436.79 670.601 432.566 670.734 431.713C670.866 430.86 670.86 424.798 670.86 424.798L669.924 423.593L666.024 423.949C666.741 423.905 666.542 424.951 666.548 425.396C666.554 425.84 666.172 429.703 666.253 430.888C666.333 432.073 665.958 436.185 665.958 436.185C665.958 436.185 662.973 439.937 662.618 440.987C662.263 442.038 663.662 444.709 664.437 443.878C665.212 443.047 666.375 441.344 666.375 441.344Z" fill="#E8B1B3"></path>
<path d="M665.429 442.136C665.429 442.136 668.124 439.69 668.627 438.736C669.13 437.783 670.144 433.61 670.324 432.766C670.504 431.922 670.84 425.869 670.84 425.869L669.974 424.613L666.06 424.748C666.778 424.745 666.521 425.778 666.502 426.222C666.483 426.666 665.883 430.502 665.897 431.689C665.911 432.877 665.304 436.962 665.304 436.962C665.304 436.962 662.112 440.539 661.698 441.567C661.285 442.596 662.531 445.342 663.352 444.556C664.172 443.771 665.429 442.136 665.429 442.136Z" fill="#EFB6B9"></path>
<path d="M673.015 326.835C671.473 321.325 664.916 306.777 661.83 304.63C658.505 303.17 654.868 306.144 653.731 307.661C652.593 309.177 650.755 312.399 650.204 316.807C649.653 321.215 651.664 328.709 652.656 331.023C653.442 332.963 656.422 340.642 657.367 343.035C661.511 353.526 665.357 359.344 665.522 362.65C665.687 365.956 663.649 377.197 663.649 382.486V400.669C663.649 400.669 663.511 408.218 662.216 410.807C660.921 413.397 657.725 416.51 656.651 418.522C655.577 420.533 654.915 424.693 654.915 424.693C654.915 424.693 654.034 428.66 653.951 429.266C653.868 429.872 652.518 431.745 653.124 432.434C653.731 433.123 656.486 432.903 657.257 431.745C658.028 430.588 657.808 429.183 658.469 427.778C659.13 426.373 659.736 423.866 660.453 423.921C661.169 423.976 662.271 425.188 662.216 425.629C662.161 426.07 661.252 429.844 661.169 431.029C661.086 432.214 660.15 436.236 660.15 436.236C660.15 436.236 656.678 439.542 656.183 440.534C655.687 441.526 656.706 444.363 657.588 443.647C658.469 442.931 660.15 440.727 660.15 440.727C660.15 440.727 662.739 439.184 663.318 438.275C663.896 437.366 665.246 433.288 665.494 432.462C665.742 431.635 666.569 425.629 666.569 425.629L665.963 433.288L663.704 438.743C663.704 438.743 661.563 439.961 660.453 441.222C659.701 442.077 659.241 442.71 659.241 444.143C659.241 445.575 661.665 444.253 662.547 443.867C663.428 443.482 665.412 441.773 666.293 440.727C667.175 439.68 669.159 435.795 669.379 434.886C669.599 433.977 670.867 427.723 671.032 426.125C671.197 424.527 672.132 413.011 672.132 413.011C674.299 404.6 677.258 391.523 678.085 386.453C678.698 382.689 679.795 372.569 679.805 365.515C679.808 363.071 679.876 359.401 679.805 358.692C679.738 358.022 679.22 355.148 678.721 352.622C677.193 344.876 674.179 330.991 673.015 326.835Z" fill="#F8BCBF"></path>
<path d="M673.236 325.294C671.693 319.784 665.687 306.67 661.94 304.521C658.79 302.713 655.818 304.821 653.896 307.387C651.973 309.952 650.424 312.455 649.873 316.863C649.322 321.271 651.141 328.71 652.132 331.024C652.512 331.961 653.289 335.377 654.391 336.699C655.493 338.022 662.712 336.479 665.687 335.597C668.662 334.716 673.015 332.236 674.064 331.024C675.112 329.812 673.502 326.244 673.236 325.294Z" fill="#B5CDFB"></path>
<path d="M673.236 325.294C671.693 319.784 665.687 306.67 661.94 304.521C658.79 302.713 655.818 304.821 653.896 307.387C651.973 309.952 650.424 312.455 649.873 316.863C649.322 321.271 651.141 328.71 652.132 331.024C652.512 331.961 653.289 335.377 654.391 336.699C655.493 338.022 662.712 336.479 665.687 335.597C668.662 334.716 673.015 332.236 674.064 331.024C675.112 329.812 673.502 326.244 673.236 325.294Z" fill="#FEFEFE" fill-opacity="0.4"></path>
<path d="M612.02 384.526C615.822 385.022 618.577 385.132 622.764 385.132V416.649C622.764 416.649 621.772 430.149 620.891 438.083C620.009 446.017 616.366 465.468 616.59 468.112C616.814 470.757 621.732 481.557 620.34 493.679C618.947 505.801 616.74 526.793 616.59 530.54C616.44 534.288 618.822 536.396 619.498 538.909C620.175 541.423 619.011 544.315 616.59 545.307C614.169 546.299 608.559 545.858 604.967 547.787C601.376 549.715 596.812 554.288 593.672 555.39C590.531 556.492 588.96 557.038 583.974 556.437C579.401 555.886 574.772 551.644 576.591 548.117C578.409 544.591 585.25 544.938 590.531 542.222C595.812 539.505 598.691 536.113 601.376 532.085C602.599 530.25 603.039 521.118 603.039 509.547C602.392 496.432 600.063 483.651 600.063 483.651C600.063 483.651 599.203 478.845 598.913 473.292C598.733 469.867 599.163 466.696 598.913 464.745C597.309 452.268 594.552 426.169 594.552 418.515C594.552 407.723 601.376 381.496 601.376 381.496C604.471 382.823 608.218 384.03 612.02 384.526Z" fill="#ECB3B5"></path>
<path d="M575.489 548.283C578.133 544.536 585.25 544.938 590.531 542.222C593.802 540.54 596.151 538.599 598.103 536.407C598.103 536.407 602.598 538.91 608.549 538.91C614.499 538.91 618.384 536.407 618.384 536.407C618.842 537.248 619.269 538.056 619.498 538.91C619.622 539.371 619.755 539.866 619.862 540.377C620.335 542.653 620.282 545.266 616.593 546.795C612.075 548.669 608.283 547.512 604.692 549.44C601.1 551.369 597.455 554.945 593.672 556.273C589.888 557.6 586.839 557.485 582.211 556.273C579.092 555.456 575.75 553.704 574.932 551.441C574.582 550.471 574.695 549.407 575.489 548.283Z" fill="#0ead69"></path>
<path d="M593.672 556.272C589.888 557.6 586.84 557.484 582.211 556.272C579.092 555.455 575.75 553.703 574.933 551.441C574.933 551.441 578.073 554.52 582.817 555.446C587.561 556.371 589.099 556.272 592.845 554.785C596.592 553.297 601.221 549.44 602.984 548.283C604.747 547.126 606.29 547.181 607.777 546.795C609.265 546.409 610.522 546.369 614.83 545.693C619.138 545.017 619.862 540.377 619.862 540.377C620.335 542.652 620.282 545.266 616.593 546.795C612.075 548.668 608.283 547.511 604.692 549.44C601.1 551.368 597.455 554.945 593.672 556.272Z" fill="black" fill-opacity="0.3"></path>
<path d="M612.021 384.526C615.823 385.022 618.578 385.132 622.765 385.132V416.649C622.765 416.649 622.545 430.314 621.663 438.248C620.782 446.183 620.558 466.129 620.782 468.774C621.005 471.418 623.977 481.777 623.099 494.395C622.221 507.013 620.27 533.129 620.12 536.877C619.203 538.548 613.729 540.073 610.202 540.073C606.676 540.073 597.089 540.183 597.089 536.877C597.089 533.571 598.571 523.749 599.182 511.421C599.844 498.087 599.182 483.651 599.182 483.651C599.182 483.651 598.323 478.845 598.032 473.292C597.853 469.867 597.339 466.316 597.089 464.366C595.485 451.888 593.671 426.169 593.671 418.515C593.671 407.723 600.495 381.496 600.495 381.496C603.591 382.823 608.219 384.03 612.021 384.526Z" fill="#0ead69"></path>
<path d="M612.021 384.526C615.823 385.022 618.578 385.132 622.765 385.132V416.649C622.765 416.649 622.545 430.314 621.663 438.248C620.782 446.183 620.558 466.129 620.782 468.774C621.005 471.418 623.977 481.777 623.099 494.395C622.221 507.013 620.27 533.129 620.12 536.877C619.203 538.548 613.729 540.073 610.202 540.073C606.676 540.073 597.089 540.183 597.089 536.877C597.089 533.571 598.571 523.749 599.182 511.421C599.844 498.087 599.182 483.651 599.182 483.651C599.182 483.651 598.323 478.845 598.032 473.292C597.853 469.867 597.339 466.316 597.089 464.366C595.485 451.888 593.671 426.169 593.671 418.515C593.671 407.723 600.495 381.496 600.495 381.496C603.591 382.823 608.219 384.03 612.021 384.526Z" fill="black" fill-opacity="0.2"></path>
<path d="M630.736 493.249C629.733 491.36 627.456 489.492 625.666 486.797C624.692 483.712 623.205 479.462 623.205 473.622C623.205 467.781 620.781 457.092 620.781 448.166C620.781 439.239 621.046 427.55 619.948 424.793C618.85 422.036 615.325 419.759 614.72 416.759C614.115 413.76 614.72 384.14 614.72 384.14H630.919C635.327 384.14 646.453 382.278 646.453 382.278C646.453 382.278 652.652 396.193 653.951 402.874C655.25 409.554 655.419 412.285 653.951 421.277C652.483 430.269 651.733 434.641 651.086 438.468C649.961 445.115 648.971 451.452 648.551 455.439C647.89 461.72 645.056 477.939 645.607 481.465C647.113 484.701 654.192 490.277 657.313 498.323C660.434 506.369 664.611 532.868 665.25 535.028C665.889 537.188 668.014 539.694 668.014 539.694C668.014 539.694 670.56 541.619 671.484 545.429C672.408 549.24 670.037 554.506 668.845 558.164C667.654 561.821 669.596 572.273 663.099 575.328C656.601 578.383 654.54 579.428 651.208 578.212C647.876 576.996 651.595 568.051 651.595 568.051C651.595 568.051 654.145 559.833 654.394 557.73C654.644 555.627 654.536 545.608 654.536 545.608C654.487 542.094 654.498 539.535 653.272 535.281C651.104 527.756 631.739 495.139 630.736 493.249Z" fill="#F8BCBF"></path>
<path d="M650.976 578.753C647.644 577.537 651.307 568.119 651.307 568.119C651.307 568.119 653.812 559.918 654.062 557.815C654.15 557.068 654.527 555.236 654.546 553.294C656.68 552.339 661.623 549.041 663.099 547.235C664.575 545.43 667.093 541.143 668.015 539.694C668.015 539.694 670.185 541.321 671.375 544.21C671.566 544.673 671.731 545.168 671.859 545.693C672.783 549.503 670.516 554.654 669.324 558.311C668.133 561.969 669.492 572.266 664.035 576.163C659.605 579.327 655.958 579.862 652.96 579.302C652.264 579.171 651.604 578.982 650.976 578.753Z" fill="#160483"></path>
<path d="M650.976 578.753C647.644 577.537 651.307 568.119 651.307 568.119C651.307 568.119 653.812 559.918 654.062 557.815C654.15 557.068 654.527 555.236 654.546 553.294C656.68 552.339 661.623 549.041 663.099 547.235C664.575 545.43 667.093 541.143 668.015 539.694C668.015 539.694 670.185 541.321 671.375 544.21C671.566 544.673 671.731 545.168 671.859 545.693C672.783 549.503 670.516 554.654 669.324 558.311C668.133 561.969 669.492 572.266 664.035 576.163C659.605 579.327 655.958 579.862 652.96 579.302C652.264 579.171 651.604 578.982 650.976 578.753Z" fill="#0ead69"></path>
<path d="M669.324 558.312C668.132 561.969 669.491 572.266 664.034 576.164C659.605 579.328 655.958 579.863 652.96 579.302C652.96 579.302 657.422 578.699 660.067 577.431L660.073 577.428C662.716 576.162 665.596 574.782 666.844 569.827C668.094 564.869 667.823 560.295 668.277 558.312C668.731 556.328 670.092 552.966 670.867 549.936C671.642 546.907 671.375 544.211 671.375 544.211C671.565 544.673 671.731 545.168 671.858 545.694C672.782 549.504 670.515 554.654 669.324 558.312Z" fill="black" fill-opacity="0.4"></path>
<path d="M629.156 493.788C628.153 491.898 626.575 489.492 624.785 486.797C623.81 483.712 622.324 479.462 622.324 473.622C622.324 467.781 619.899 457.092 619.899 448.166C619.899 439.239 620.998 427.56 619.899 424.803C618.801 422.046 615.325 419.759 614.72 416.759C614.115 413.76 614.72 384.14 614.72 384.14H630.919C635.327 384.14 646.453 382.278 646.453 382.278C646.453 382.278 652.982 395.752 654.282 402.433C655.581 409.114 656.025 411.899 654.557 420.891C653.089 429.883 652.34 433.869 651.692 437.697C650.567 444.344 649.853 451.397 649.433 455.384C648.772 461.665 645.3 477.589 645.851 481.115C647.357 484.351 654.357 489.875 657.478 497.921C660.598 505.967 664.2 521.338 665.412 526.352C666.624 531.366 667.946 536.931 668.497 538.75C669.048 540.568 668.014 544.315 664.2 548.833C660.385 553.351 654.888 555.996 654.006 553.241C653.125 550.486 651.196 543.22 650.094 539.694C648.992 536.167 644.254 524.864 641.939 520.346C638.369 513.376 630.159 495.678 629.156 493.788Z" fill="#0ead69"></path>
<path d="M629.156 493.789C628.153 491.899 626.575 489.492 624.785 486.798C623.81 483.713 622.324 479.463 622.324 473.622C622.324 467.782 619.899 457.092 619.899 448.166C619.899 439.24 620.998 427.561 619.899 424.804C618.801 422.047 615.325 419.76 614.72 416.76C614.115 413.76 614.72 384.14 614.72 384.14H630.919C635.327 384.14 646.453 382.279 646.453 382.279C646.453 382.279 652.982 395.753 654.282 402.433C655.581 409.114 656.025 411.899 654.557 420.892C653.089 429.884 652.34 433.87 651.692 437.697C650.567 444.345 649.853 451.398 649.433 455.384C648.772 461.665 645.3 477.589 645.851 481.116C647.357 484.352 654.357 489.875 657.478 497.921C660.598 505.967 664.2 521.339 665.412 526.353C666.624 531.367 667.946 536.932 668.497 538.75C669.048 540.568 668.014 544.315 664.2 548.833C660.385 553.351 654.888 555.996 654.006 553.241C653.125 550.486 651.196 543.221 650.094 539.694C648.992 536.168 644.254 524.865 641.939 520.347C638.369 513.376 630.159 495.679 629.156 493.789Z" fill="black" fill-opacity="0.1"></path>
<path d="M583.313 326.176L598.962 315.928C602.231 311.887 602.819 308.875 604.141 304.577C605.463 300.28 605.133 293.668 605.133 291.684C600.942 291.133 597.088 291.904 594.443 293.668C591.799 295.431 588.87 297.525 584.305 301.933C579.74 306.341 570.31 315.928 570.31 315.928C570.31 315.928 559.841 306.671 556.204 303.916C552.568 301.161 545.184 296.533 543.421 295.1C541.658 293.668 538.738 291.243 537.14 289.921C535.542 288.598 533.806 283.309 531.988 281.711C530.17 280.113 525.018 277.248 525.018 277.248C525.018 277.248 522.263 275.319 521.326 274.686C520.389 274.052 517.882 272.206 517.194 271.765C516.505 271.325 512.786 269.617 512.786 269.617C512.786 269.617 510.91 268.561 510.251 269.314C509.592 270.066 510.251 271.628 510.444 271.903C510.637 272.179 514.053 274.686 514.053 274.686L517.414 277.11L520.94 280.113C520.94 280.113 519.453 280.774 518.902 281.435C518.351 282.097 517.745 283.088 517.194 283.75C516.643 284.411 515.816 285.513 515.43 286.56C515.045 287.607 515.155 288.323 514.879 289.039C514.604 289.756 514.108 290.747 514.494 291.684C514.879 292.621 515.774 292.896 517.227 293.668C518.681 294.439 519.783 296.367 522.703 297.414C525.624 298.461 528.875 297.855 530.968 299.288C533.062 300.72 536.699 305.018 539.784 308.104C542.87 311.189 547.278 317.581 551.576 321.438C555.874 325.295 564.249 333.009 568.987 333.009C571.247 333.009 580.852 328.16 583.313 326.176Z" fill="#ECB3B5"></path>
<path d="M517.227 293.666C518.681 294.437 519.783 296.366 522.703 297.413L522.235 295.594C522.529 295.024 522.924 294.217 523.805 293.666C524.907 292.977 527.276 293.362 527.993 293.362C528.709 293.362 530.61 293.666 531.299 293.666H534.164C532.786 293.445 529.833 292.872 529.04 292.343C528.246 291.814 527.056 289.919 526.56 289.037H525.017C525.017 289.037 524.411 290.855 523.805 291.957C523.199 293.059 521.359 292.79 521.16 292.095C520.966 291.414 521.23 290.584 521.326 289.919C521.446 289.078 521.361 288.281 521.463 287.604L522.235 285.676C522.235 285.676 522.483 284.024 523.144 283.748C523.805 283.472 527.001 283.196 527.001 283.196L525.017 281.158C524.705 281.25 524.026 281.434 523.805 281.434H520.499L521.326 283.472L522.097 284.243C522.097 284.243 522.207 285.318 521.849 285.896C521.491 286.475 521.574 286.75 520.747 286.805C519.921 286.861 519.397 286.558 518.901 286.42C518.405 286.282 517.193 284.739 517.193 284.739C517.193 284.739 518.13 286.31 518.516 286.558C518.901 286.805 520.499 287.356 520.747 287.604C520.995 287.852 520.747 288.872 520.747 288.872C520.655 289.266 520.692 289.781 520.196 290.111C520.011 290.235 518.13 290.084 517.661 289.919C517.271 289.782 516.165 289.331 515.265 289.037L517.661 290.249C518.203 290.387 519.011 290.635 519.397 290.883C519.783 291.131 519.948 291.709 519.948 292.095C519.948 292.481 519.948 293.087 519.397 293.362C519.067 293.528 518.598 293.666 518.13 293.666H517.227Z" fill="black" fill-opacity="0.05"></path>
<path d="M594.278 293.062C591.633 294.826 587.548 297.636 582.982 302.044C582.201 302.798 580.392 304.192 579.841 305.404C579.291 306.617 580.415 311.112 582.266 314.109C584.117 317.107 588.382 321.328 590.421 321.823C592.459 322.318 599.016 316.148 599.016 316.148C601.165 313.117 601.716 309.426 602.928 304.136C604.14 298.846 605.132 293.668 605.132 291.684C600.941 291.133 596.922 291.299 594.278 293.062Z" fill="#B5CDFB"></path>
<path d="M594.278 293.062C591.633 294.826 587.548 297.636 582.982 302.044C582.201 302.798 580.392 304.192 579.841 305.404C579.291 306.617 580.415 311.112 582.266 314.109C584.117 317.107 588.382 321.328 590.421 321.823C592.459 322.318 599.237 316.093 599.237 316.093C600.835 312.511 601.496 310.858 602.818 304.356C604.14 297.855 605.132 293.668 605.132 291.684C600.941 291.133 596.922 291.299 594.278 293.062Z" fill="white" fill-opacity="0.4"></path>
<path d="M646.145 296.201C648.925 298.074 659.296 302.868 661.831 304.631C658.505 303.171 654.868 306.145 653.731 307.662C652.594 309.178 650.756 312.4 650.205 316.808C649.654 321.216 653.577 332.897 654.569 335.212C653.341 338.994 653.731 340.942 651.527 353.505C650.613 358.715 649.213 366.288 650.205 373.12C651.196 379.953 652.21 383.699 654.569 390.642C656.927 397.585 657.698 404.803 655.935 407.337C654.172 409.872 648.662 412.131 636.65 412.351C624.638 412.572 618.357 412.517 611.745 411.69C611.745 411.69 595.876 410.919 593.232 405.96C590.587 401.001 598.191 377.087 598.191 369.373C598.191 361.66 598.2 361.384 598.191 356.59C598.181 351.797 596.978 337.526 598.191 327.828C599.142 320.214 598.962 318.608 598.962 315.927C600.45 312.511 601.552 308.984 602.819 303.695C604.086 298.405 605.133 293.666 605.133 291.683C607.294 291.967 609.702 292.163 611.8 292.181C613.77 292.197 615.466 292.056 616.429 291.683C616.062 294.474 616.921 301.387 622.104 302.317C632.173 304.124 636.154 297.744 641.83 293.666L646.145 296.201Z" fill="#B5CDFB"></path>
<path d="M622.104 302.37C616.921 301.44 616.173 294.472 616.539 291.68C616.539 291.68 615.933 292.011 614.638 292.149C613.343 292.287 611.745 292.287 611.745 292.287C611.745 292.287 611.781 305.29 620.781 307.053C634.345 309.71 646.145 296.254 646.145 296.254L641.83 293.719C636.154 297.797 632.174 304.177 622.104 302.37Z" fill="white" fill-opacity="0.15"></path>
<path d="M607.226 264.353C608.934 253.057 615.681 243.746 627.062 243.746C638.443 243.746 647.834 251.294 647.834 263.031C647.834 265.609 647.341 268.924 646.703 270.558C646.33 271.511 645.737 272.506 644.995 273.512C641.388 278.393 634.249 283.498 631.69 284.96C628.604 286.723 623.833 288.688 619.789 289.038C615.744 289.388 612.635 288.635 610.752 286.944C608.869 285.253 606.73 280.959 606.454 275.759C606.179 270.558 607.226 264.353 607.226 264.353Z" fill="#F8BCBF"></path>
<path d="M649.02 268.789C649.598 266.668 649.956 265.455 650.012 260.469C650.067 255.482 645.631 247.492 641.003 245.398C637.642 243.167 636.099 241.155 625.85 241.597C620.465 241.597 618.853 243.966 614.72 247.492C611.414 248.815 608.824 245.398 605.518 247.492C602.213 249.586 605.265 256.828 608.533 258.799C611.8 260.771 621.332 263.416 624.693 262.259C628.054 261.102 631.195 257.741 631.195 257.741C630.166 259.394 627.558 262.095 627.558 264.133C627.558 266.612 628.886 267.107 629.377 268.789C629.867 270.471 629.046 273.61 629.046 273.61L632.077 274.079C632.077 274.079 633.95 268.21 636.595 268.21C639.24 268.21 639.625 270.883 638.303 276.365C636.98 281.847 639.019 283.528 640.121 283.859C641.223 284.189 644.915 278.816 646.21 275.813C647.119 273.704 648.441 270.91 649.02 268.789Z" fill="black"></path>
</svg>