<svg width="200" height="150" viewBox="0 0 800 600" fill="none" xmlns="http://www.w3.org/2000/svg" data-reactroot="">
<path d="M714.466 570.101C717.961 570.101 720.794 567.267 720.794 563.772C720.794 560.277 717.961 557.443 714.466 557.443C710.97 557.443 708.137 560.277 708.137 563.772C708.137 567.267 710.97 570.101 714.466 570.101Z" fill="#B5CDFB"></path>
<path d="M48.4617 233.73C51.9569 233.73 54.7905 230.896 54.7905 227.401C54.7905 223.906 51.9569 221.072 48.4617 221.072C44.9664 221.072 42.1328 223.906 42.1328 227.401C42.1328 230.896 44.9664 233.73 48.4617 233.73Z" fill="#B5CDFB"></path>
<path d="M101.009 264.837C104.504 264.837 107.337 262.004 107.337 258.508C107.337 255.013 104.504 252.18 101.009 252.18C97.5133 252.18 94.6797 255.013 94.6797 258.508C94.6797 262.004 97.5133 264.837 101.009 264.837Z" fill="#B5CDFB"></path>
<path d="M46.3288 194.614C49.8241 194.614 52.6577 191.781 52.6577 188.286C52.6577 184.79 49.8241 181.957 46.3288 181.957C42.8336 181.957 40 184.79 40 188.286C40 191.781 42.8336 194.614 46.3288 194.614Z" fill="#B5CDFB"></path>
<path d="M160.489 258.507C163.984 258.507 166.818 255.674 166.818 252.178C166.818 248.683 163.984 245.85 160.489 245.85C156.994 245.85 154.16 248.683 154.16 252.178C154.16 255.674 156.994 258.507 160.489 258.507Z" fill="#B5CDFB"></path>
<path d="M667.477 536.007C670.973 536.007 673.806 533.174 673.806 529.678C673.806 526.183 670.973 523.35 667.477 523.35C663.982 523.35 661.148 526.183 661.148 529.678C661.148 533.174 663.982 536.007 667.477 536.007Z" fill="#B5CDFB"></path>
<path d="M301.985 553.234C305.48 553.234 308.314 550.4 308.314 546.905C308.314 543.41 305.48 540.576 301.985 540.576C298.49 540.576 295.656 543.41 295.656 546.905C295.656 550.4 298.49 553.234 301.985 553.234Z" fill="#B5CDFB"></path>
<path d="M505.04 553.234C508.535 553.234 511.369 550.4 511.369 546.905C511.369 543.41 508.535 540.576 505.04 540.576C501.545 540.576 498.711 543.41 498.711 546.905C498.711 550.4 501.545 553.234 505.04 553.234Z" fill="#B5CDFB"></path>
<path d="M753.954 539.691C757.449 539.691 760.283 536.857 760.283 533.362C760.283 529.867 757.449 527.033 753.954 527.033C750.459 527.033 747.625 529.867 747.625 533.362C747.625 536.857 750.459 539.691 753.954 539.691Z" fill="#B5CDFB"></path>
<path d="M293.012 264.837C296.508 264.837 299.341 262.004 299.341 258.508C299.341 255.013 296.508 252.18 293.012 252.18C289.517 252.18 286.684 255.013 286.684 258.508C286.684 262.004 289.517 264.837 293.012 264.837Z" fill="#B5CDFB"></path>
<path d="M332.723 240.058C336.219 240.058 339.052 237.224 339.052 233.729C339.052 230.234 336.219 227.4 332.723 227.4C329.228 227.4 326.395 230.234 326.395 233.729C326.395 237.224 329.228 240.058 332.723 240.058Z" fill="#B5CDFB"></path>
<path d="M194.196 204.101C197.691 204.101 200.525 201.267 200.525 197.772C200.525 194.277 197.691 191.443 194.196 191.443C190.701 191.443 187.867 194.277 187.867 197.772C187.867 201.267 190.701 204.101 194.196 204.101Z" fill="#B5CDFB"></path>
<path d="M127.266 200.943C130.762 200.943 133.595 198.109 133.595 194.614C133.595 191.119 130.762 188.285 127.266 188.285C123.771 188.285 120.938 191.119 120.938 194.614C120.938 198.109 123.771 200.943 127.266 200.943Z" fill="#B5CDFB"></path>
<path d="M227.692 236.886C231.187 236.886 234.021 234.053 234.021 230.557C234.021 227.062 231.187 224.229 227.692 224.229C224.197 224.229 221.363 227.062 221.363 230.557C221.363 234.053 224.197 236.886 227.692 236.886Z" fill="#B5CDFB"></path>
<path d="M257.962 204.101C261.457 204.101 264.29 201.267 264.29 197.772C264.29 194.277 261.457 191.443 257.962 191.443C254.466 191.443 251.633 194.277 251.633 197.772C251.633 201.267 254.466 204.101 257.962 204.101Z" fill="#B5CDFB"></path>
<path d="M257.962 282.587C261.457 282.587 264.29 279.754 264.29 276.258C264.29 272.763 261.457 269.93 257.962 269.93C254.466 269.93 251.633 272.763 251.633 276.258C251.633 279.754 254.466 282.587 257.962 282.587Z" fill="#B5CDFB"></path>
<path d="M221.364 282.587C224.859 282.587 227.693 279.754 227.693 276.258C227.693 272.763 224.859 269.93 221.364 269.93C217.869 269.93 215.035 272.763 215.035 276.258C215.035 279.754 217.869 282.587 221.364 282.587Z" fill="#B5CDFB"></path>
<path d="M306.497 204.101C309.992 204.101 312.826 201.267 312.826 197.772C312.826 194.277 309.992 191.443 306.497 191.443C303.002 191.443 300.168 194.277 300.168 197.772C300.168 201.267 303.002 204.101 306.497 204.101Z" fill="#B5CDFB"></path>
<path d="M386.536 204.101C390.031 204.101 392.865 201.267 392.865 197.772C392.865 194.277 390.031 191.443 386.536 191.443C383.041 191.443 380.207 194.277 380.207 197.772C380.207 201.267 383.041 204.101 386.536 204.101Z" fill="#B5CDFB"></path>
<path d="M446.856 194.614C450.351 194.614 453.185 191.781 453.185 188.286C453.185 184.79 450.351 181.957 446.856 181.957C443.361 181.957 440.527 184.79 440.527 188.286C440.527 191.781 443.361 194.614 446.856 194.614Z" fill="#B5CDFB"></path>
<path d="M450.184 233.73C453.68 233.73 456.513 230.896 456.513 227.401C456.513 223.906 453.68 221.072 450.184 221.072C446.689 221.072 443.855 223.906 443.855 227.401C443.855 230.896 446.689 233.73 450.184 233.73Z" fill="#B5CDFB"></path>
<path d="M380.208 271.165C383.703 271.165 386.537 268.332 386.537 264.837C386.537 261.341 383.703 258.508 380.208 258.508C376.712 258.508 373.879 261.341 373.879 264.837C373.879 268.332 376.712 271.165 380.208 271.165Z" fill="#B5CDFB"></path>
<path d="M424.286 276.259C427.781 276.259 430.615 273.426 430.615 269.93C430.615 266.435 427.781 263.602 424.286 263.602C420.791 263.602 417.957 266.435 417.957 269.93C417.957 273.426 420.791 276.259 424.286 276.259Z" fill="#B5CDFB"></path>
<path d="M635.747 200.943C639.242 200.943 642.076 198.109 642.076 194.614C642.076 191.119 639.242 188.285 635.747 188.285C632.252 188.285 629.418 191.119 629.418 194.614C629.418 198.109 632.252 200.943 635.747 200.943Z" fill="#B5CDFB"></path>
<path d="M400.462 538.099C403.957 538.099 406.79 535.265 406.79 531.77C406.79 528.275 403.957 525.441 400.462 525.441C396.966 525.441 394.133 528.275 394.133 531.77C394.133 535.265 396.966 538.099 400.462 538.099Z" fill="#B5CDFB"></path>
<path d="M502.731 264.837C506.226 264.837 509.06 262.004 509.06 258.508C509.06 255.013 506.226 252.18 502.731 252.18C499.236 252.18 496.402 255.013 496.402 258.508C496.402 262.004 499.236 264.837 502.731 264.837Z" fill="#B5CDFB"></path>
<path d="M541.649 273.808C545.144 273.808 547.978 270.974 547.978 267.479C547.978 263.984 545.144 261.15 541.649 261.15C538.154 261.15 535.32 263.984 535.32 267.479C535.32 270.974 538.154 273.808 541.649 273.808Z" fill="#B5CDFB"></path>
<path d="M483.016 534.927C486.512 534.927 489.345 532.094 489.345 528.598C489.345 525.103 486.512 522.27 483.016 522.27C479.521 522.27 476.688 525.103 476.688 528.598C476.688 532.094 479.521 534.927 483.016 534.927Z" fill="#B5CDFB"></path>
<path d="M603.856 553.234C607.351 553.234 610.185 550.4 610.185 546.905C610.185 543.41 607.351 540.576 603.856 540.576C600.361 540.576 597.527 543.41 597.527 546.905C597.527 550.4 600.361 553.234 603.856 553.234Z" fill="#B5CDFB"></path>
<path d="M363.501 505.696C366.996 505.696 369.83 502.863 369.83 499.368C369.83 495.873 366.996 493.039 363.501 493.039C360.005 493.039 357.172 495.873 357.172 499.368C357.172 502.863 360.005 505.696 363.501 505.696Z" fill="#B5CDFB"></path>
<path d="M438.114 505.696C441.609 505.696 444.443 502.863 444.443 499.368C444.443 495.873 441.609 493.039 438.114 493.039C434.619 493.039 431.785 495.873 431.785 499.368C431.785 502.863 434.619 505.696 438.114 505.696Z" fill="#B5CDFB"></path>
<path d="M308.313 525.443C311.808 525.443 314.642 522.609 314.642 519.114C314.642 515.619 311.808 512.785 308.313 512.785C304.818 512.785 301.984 515.619 301.984 519.114C301.984 522.609 304.818 525.443 308.313 525.443Z" fill="#B5CDFB"></path>
<path d="M272.872 525.443C276.367 525.443 279.201 522.609 279.201 519.114C279.201 515.619 276.367 512.785 272.872 512.785C269.377 512.785 266.543 515.619 266.543 519.114C266.543 522.609 269.377 525.443 272.872 525.443Z" fill="#B5CDFB"></path>
<path d="M688.407 233.73C691.902 233.73 694.736 230.896 694.736 227.401C694.736 223.906 691.902 221.072 688.407 221.072C684.912 221.072 682.078 223.906 682.078 227.401C682.078 230.896 684.912 233.73 688.407 233.73Z" fill="#B5CDFB"></path>
<path d="M505.04 489.251C508.535 489.251 511.369 486.418 511.369 482.922C511.369 479.427 508.535 476.594 505.04 476.594C501.545 476.594 498.711 479.427 498.711 482.922C498.711 486.418 501.545 489.251 505.04 489.251Z" fill="#B5CDFB"></path>
<path d="M573.391 499.368C576.887 499.368 579.72 496.535 579.72 493.04C579.72 489.544 576.887 486.711 573.391 486.711C569.896 486.711 567.062 489.544 567.062 493.04C567.062 496.535 569.896 499.368 573.391 499.368Z" fill="#B5CDFB"></path>
<path d="M544.872 553.234C548.367 553.234 551.201 550.4 551.201 546.905C551.201 543.41 548.367 540.576 544.872 540.576C541.377 540.576 538.543 543.41 538.543 546.905C538.543 550.4 541.377 553.234 544.872 553.234Z" fill="#B5CDFB"></path>
<path d="M610.184 501.909C613.68 501.909 616.513 499.076 616.513 495.581C616.513 492.085 613.68 489.252 610.184 489.252C606.689 489.252 603.855 492.085 603.855 495.581C603.855 499.076 606.689 501.909 610.184 501.909Z" fill="#B5CDFB"></path>
<path d="M722.466 267.48C725.961 267.48 728.794 264.646 728.794 261.151C728.794 257.656 725.961 254.822 722.466 254.822C718.97 254.822 716.137 257.656 716.137 261.151C716.137 264.646 718.97 267.48 722.466 267.48Z" fill="#B5CDFB"></path>
<path d="M528.989 200.943C532.484 200.943 535.318 198.109 535.318 194.614C535.318 191.119 532.484 188.285 528.989 188.285C525.494 188.285 522.66 191.119 522.66 194.614C522.66 198.109 525.494 200.943 528.989 200.943Z" fill="#B5CDFB"></path>
<path d="M569.298 233.73C572.793 233.73 575.626 230.896 575.626 227.401C575.626 223.906 572.793 221.072 569.298 221.072C565.802 221.072 562.969 223.906 562.969 227.401C562.969 230.896 565.802 233.73 569.298 233.73Z" fill="#B5CDFB"></path>
<path d="M629.415 236.886C632.91 236.886 635.744 234.053 635.744 230.557C635.744 227.062 632.91 224.229 629.415 224.229C625.92 224.229 623.086 227.062 623.086 230.557C623.086 234.053 625.92 236.886 629.415 236.886Z" fill="#B5CDFB"></path>
<path d="M625.259 528.599C628.754 528.599 631.587 525.765 631.587 522.27C631.587 518.775 628.754 515.941 625.259 515.941C621.763 515.941 618.93 518.775 618.93 522.27C618.93 525.765 621.763 528.599 625.259 528.599Z" fill="#B5CDFB"></path>
<path d="M722.466 194.614C725.961 194.614 728.794 191.781 728.794 188.286C728.794 184.79 725.961 181.957 722.466 181.957C718.97 181.957 716.137 184.79 716.137 188.286C716.137 191.781 718.97 194.614 722.466 194.614Z" fill="#B5CDFB"></path>
<path d="M155.086 287.723H695.225" stroke="#005B9D" stroke-width="12" stroke-miterlimit="10" stroke-linecap="round"></path>
<path d="M528.923 133.36V107.492H501.274V133.36H480.223V282.919H549.975V133.36H528.923Z" fill="#1c744f"></path>
<path d="M611.021 35.8675V10H583.372V35.8675H562.32V280.623H632.073V35.8675H611.021Z" fill="#1c744f"></path>
<path d="M155.086 590H695.225" stroke="#005B9D" stroke-width="12" stroke-miterlimit="10" stroke-linecap="round"></path>
<path d="M359.233 583.422H214.63C213.961 578.858 218.339 574.225 217.137 570.037C206.207 560.532 188.861 474.039 218.141 408.601C217.362 403.935 216.221 399.275 214.63 394.564H367.787C366.486 398.429 365.601 413.504 366.361 417.961C389.172 459.696 377.767 574.789 358.282 570.512C353.766 569.52 360.521 578.824 359.233 583.422Z" fill="#0ead69"></path>
<path d="M500.672 354.562V328.785H479.338V354.562C458.017 359.417 442.09 378.453 442.09 401.244V513.721V526.873V570.689C442.09 579.363 451.334 584.908 458.985 580.824L466.968 576.565C471.76 574.008 477.687 575.156 481.178 579.317C485.778 584.8 494.218 584.788 498.802 579.291L499.051 578.992C502.579 574.761 508.613 573.63 513.434 576.296L520.872 580.411C528.529 584.646 537.92 579.108 537.92 570.358V526.873V516.81V401.244C537.92 378.453 521.993 359.417 500.672 354.562Z" fill="#0ead69"></path>
<path d="M614.731 354.562V328.785H593.396V354.562C572.075 359.417 556.148 378.453 556.148 401.244V513.721V526.873V570.689C556.148 579.363 565.392 584.908 573.044 580.824L581.027 576.565C585.818 574.008 591.746 575.156 595.236 579.317C599.836 584.8 608.276 584.788 612.86 579.291L613.109 578.992C616.638 574.761 622.672 573.63 627.493 576.296L634.931 580.411C642.588 584.646 651.979 579.108 651.979 570.358V526.873V516.81V401.244C651.979 378.453 636.052 359.417 614.731 354.562Z" fill="#0ead69"></path>
</svg>