<svg width="200" height="150" viewBox="0 0 800 600" fill="none" xmlns="http://www.w3.org/2000/svg" data-reactroot="">
<path d="M506.992 503.387L409.691 476.701L446.273 363.228L528.075 383.382L506.992 503.387Z" fill="#B5CDFB"></path>
<path fill-rule="evenodd" clip-rule="evenodd" d="M493.472 342.864C493.338 342.959 493.156 343.116 492.925 343.354C492.596 343.692 492.208 344.151 491.765 344.721C490.881 345.862 489.809 347.413 488.614 349.252C486.225 352.926 483.366 357.712 480.574 362.564C477.782 367.415 475.059 372.326 472.943 376.249C470.818 380.187 469.324 383.093 468.969 383.958L467.951 383.541C468.333 382.609 469.863 379.641 471.975 375.726C474.096 371.796 476.823 366.876 479.62 362.016C482.417 357.157 485.287 352.351 487.692 348.652C488.893 346.804 489.985 345.223 490.896 344.047C491.351 343.46 491.768 342.966 492.136 342.587C492.492 342.221 492.846 341.917 493.177 341.766L493.376 341.676L493.583 341.747C494.199 341.958 494.988 342.021 495.912 341.991C496.831 341.962 497.833 341.843 498.864 341.721L498.878 341.719C499.894 341.599 500.94 341.475 501.911 341.444C502.881 341.413 503.828 341.472 504.632 341.747L504.905 341.84L504.983 342.118C506.037 345.864 508.686 358.452 509.211 363.504C509.616 367.394 509.134 374.001 508.468 380.232C507.802 386.467 506.943 392.391 506.567 394.984L506.564 395.004L505.476 394.846L505.478 394.828C505.854 392.237 506.71 386.33 507.374 380.116C508.042 373.868 508.508 367.374 508.117 363.618C507.612 358.766 505.095 346.733 504.004 342.707C503.434 342.561 502.739 342.518 501.946 342.543C501.027 342.573 500.025 342.691 498.994 342.813L498.98 342.815C497.964 342.935 496.918 343.059 495.947 343.091C495.074 343.119 494.22 343.074 493.472 342.864Z" fill="#242424"></path>
<path d="M468.58 386.628C470.413 386.628 471.899 385.142 471.899 383.31C471.899 381.477 470.413 379.991 468.58 379.991C466.747 379.991 465.262 381.477 465.262 383.31C465.262 385.142 466.747 386.628 468.58 386.628Z" fill="#D1D3D4"></path>
<path d="M505.871 398.785C507.704 398.785 509.19 397.299 509.19 395.466C509.19 393.634 507.704 392.148 505.871 392.148C504.038 392.148 502.553 393.634 502.553 395.466C502.553 397.299 504.038 398.785 505.871 398.785Z" fill="#D1D3D4"></path>
<path fill-rule="evenodd" clip-rule="evenodd" d="M268.18 328.138L277.542 329.626L277.666 329.885C279.345 333.387 281.044 337.594 282.424 342.462C283.487 346.212 284.144 352.782 284.555 359.014C284.967 365.25 285.137 371.214 285.212 373.823L285.212 373.844L284.117 373.875L284.116 373.857C284.042 371.249 283.872 365.302 283.461 359.087C283.048 352.837 282.395 346.382 281.369 342.761C280.043 338.08 278.416 334.019 276.801 330.618L268.438 329.289C265.122 331.573 260.014 335.716 255.681 342.384C253.743 345.367 251.633 351.156 249.894 356.735C248.161 362.292 246.821 367.555 246.409 369.429L245.338 369.193C245.758 367.285 247.107 361.991 248.847 356.408C250.581 350.848 252.729 344.915 254.762 341.787C259.277 334.838 264.614 330.569 268 328.26L268.18 328.138Z" fill="#242424"></path>
<path d="M301.104 480.192L316.815 468.771L302.661 463.883L301.104 480.192Z" fill="#B5CDFB"></path>
<path d="M313.028 353.851L224.547 347.603L217.51 352.955L305.447 364.046L313.028 353.851Z" fill="#B5CDFB"></path>
<path d="M301.104 480.192L201 470.632L217.51 352.955L301.278 358.753L301.104 480.192Z" fill="#1c744f"></path>
<path d="M301.278 358.753L304.559 360.095L313.028 353.851L316.815 468.771L303.419 469.93L301.104 480.192" fill="#E6E7E8"></path>
<path fill-rule="evenodd" clip-rule="evenodd" d="M265.109 328.138L274.472 329.626L274.596 329.885C276.274 333.387 277.974 337.594 279.354 342.462C280.416 346.212 281.073 352.782 281.485 359.014C281.897 365.25 282.067 371.214 282.142 373.823L282.142 373.844L281.046 373.875L281.046 373.857C280.971 371.249 280.802 365.302 280.391 359.087C279.978 352.837 279.325 346.382 278.299 342.761C276.972 338.08 275.346 334.019 273.731 330.618L265.368 329.289C262.052 331.573 256.944 335.716 252.611 342.384C250.673 345.367 248.563 351.156 246.824 356.735C245.091 362.292 243.751 367.555 243.338 369.429L242.268 369.193C242.688 367.285 244.036 361.991 245.777 356.408C247.511 350.848 249.659 344.915 251.692 341.787C256.207 334.838 261.544 330.569 264.929 328.26L265.109 328.138Z" fill="#242424"></path>
<path d="M242.846 372.166C244.673 372.166 246.154 370.685 246.154 368.858C246.154 367.032 244.673 365.551 242.846 365.551C241.02 365.551 239.539 367.032 239.539 368.858C239.539 370.685 241.02 372.166 242.846 372.166Z" fill="#242424"></path>
<path d="M281.544 377.724C283.37 377.724 284.851 376.243 284.851 374.417C284.851 372.59 283.37 371.109 281.544 371.109C279.717 371.109 278.236 372.59 278.236 374.417C278.236 376.243 279.717 377.724 281.544 377.724Z" fill="#242424"></path>
<path d="M254.801 317.688C254.892 318.173 244.618 340.326 251.148 343.961C254.268 344.551 255.748 342.342 259.748 342.267C263.748 342.192 265.714 341.5 269.39 341.485C273.067 341.47 274.894 327.951 274.894 327.951C274.894 327.951 273.083 335.059 275.254 335.492C277.425 335.924 286.444 324.682 285.137 319.908C283.831 315.134 254.801 317.688 254.801 317.688Z" fill="#E3B584"></path>
<path d="M332.123 140.451C332.123 140.451 297.008 146.338 271.923 217.311C246.838 288.283 244.936 325.581 244.936 325.581H296.895L323.929 196.508C323.929 196.508 338.919 155.55 332.123 140.451Z" fill="#0ead69"></path>
<path d="M357.125 573.551H342.677L340.244 549.667H357.125V573.551Z" fill="#E3B584"></path>
<path d="M362.741 298.359H333.803V560.118H362.741V298.359Z" fill="#1c744f"></path>
<path d="M407.11 298.359H378.172V560.118H407.11V298.359Z" fill="#1c744f"></path>
<path d="M395.626 292.44H345.445V347.685H395.626V292.44Z" fill="#1c744f"></path>
<path d="M384.767 114.206C386.218 114.287 416.494 155.147 416.494 155.147L438.592 170.792L427.196 309.54H316.82L322.294 166.739C322.294 166.739 323.923 149.922 326.919 146.62C338.44 133.925 337.387 128.313 355.857 115.101L384.767 114.206Z" fill="#B5CDFB"></path>
<path d="M355.858 115.101C355.858 115.101 333.148 141.829 344.986 159.587C356.824 177.344 355.838 434.829 355.838 434.829L310.617 433.014C310.617 433.014 294.786 254.664 313.173 171.738C317.157 153.77 307.961 136.066 355.858 115.101Z" fill="#0ead69"></path>
<path d="M384.768 114.206C384.768 114.206 407.458 141.829 395.619 159.587C383.781 177.344 389.278 434.829 389.278 434.829H448.242C448.242 434.829 453.376 270.74 443.213 190.597C440.662 170.48 447.906 141.829 384.768 114.206Z" fill="#0ead69"></path>
<path d="M400.941 573.551H386.494L385.68 549.667H402.561L400.941 573.551Z" fill="#E3B584"></path>
<path d="M363.813 560.118H329.777L330.054 543.594L363.813 550.13V560.118Z" fill="#0ead69"></path>
<path d="M409.656 560.118H375.621L375.898 543.594L409.656 550.13V560.118Z" fill="#B5CDFB"></path>
<path fill-rule="evenodd" clip-rule="evenodd" d="M341.626 439.735C339.172 440.22 337.083 441.415 336.019 443.48C334.621 446.194 334.965 450.344 337.637 452.571C339.11 453.799 341.135 454.323 343.032 454.19C344.945 454.056 346.569 453.27 347.361 452.078C347.827 451.377 348.097 450.406 348.09 449.49C348.084 448.556 347.796 447.855 347.361 447.512C346.901 447.15 346.021 446.986 344.841 447.339C343.69 447.684 342.367 448.498 341.18 449.877C340.904 450.197 340.421 450.233 340.101 449.958C339.78 449.682 339.744 449.199 340.02 448.878C341.373 447.305 342.937 446.311 344.403 445.872C345.841 445.442 347.307 445.521 348.308 446.31L347.842 446.902L348.308 446.31C349.259 447.059 349.613 448.313 349.621 449.479C349.63 450.665 349.289 451.943 348.637 452.925L347.999 452.501L348.637 452.925C347.495 454.644 345.343 455.563 343.139 455.718C340.919 455.873 338.485 455.271 336.657 453.747C333.329 450.973 332.998 446.001 334.658 442.779C336.007 440.159 338.596 438.773 341.33 438.233C344.063 437.694 347.05 437.974 349.401 438.789C351.835 439.633 354.326 441.308 356.116 443.474C357.908 445.643 359.049 448.372 358.622 451.297C358.059 455.144 355.061 457.484 352.272 458.854C349.463 460.235 346.67 460.734 346.151 460.82L346.026 460.065L346.151 460.82C346.151 460.82 346.151 460.82 346.151 460.82C345.336 460.956 336.916 462.218 330.838 455.824L331.392 455.297L330.838 455.824C325.92 450.652 326.132 444.24 326.188 443.092C326.209 442.669 326.568 442.344 326.991 442.365C327.413 442.386 327.738 442.745 327.718 443.167C327.665 444.222 327.484 450.075 331.947 454.769C337.454 460.561 345.148 459.435 345.9 459.31L345.9 459.31C346.367 459.232 348.987 458.763 351.597 457.48C354.226 456.188 356.654 454.17 357.107 451.075C357.454 448.702 356.542 446.394 354.936 444.45C353.327 442.503 351.073 440.989 348.899 440.235L349.149 439.514L348.899 440.235C346.793 439.505 344.081 439.251 341.626 439.735Z" fill="#242424"></path>
<path fill-rule="evenodd" clip-rule="evenodd" d="M397.683 437.355C400.416 437.894 403.005 439.281 404.354 441.9L403.674 442.251L404.354 441.9C406.014 445.122 405.683 450.094 402.355 452.869C400.528 454.392 398.093 454.995 395.873 454.839C393.669 454.684 391.518 453.765 390.376 452.047L390.376 452.047C389.723 451.064 389.382 449.787 389.391 448.601C389.399 447.434 389.753 446.181 390.704 445.431C391.705 444.642 393.172 444.564 394.61 444.994C396.075 445.432 397.639 446.427 398.993 447.999C399.268 448.32 399.232 448.803 398.912 449.079C398.591 449.355 398.108 449.319 397.832 448.998C396.646 447.62 395.323 446.805 394.171 446.461C392.992 446.108 392.111 446.272 391.652 446.634L391.652 446.634C391.216 446.977 390.929 447.677 390.922 448.612C390.915 449.527 391.186 450.499 391.651 451.199C392.443 452.392 394.067 453.177 395.98 453.312C397.878 453.445 399.902 452.921 401.375 451.693L401.865 452.281L401.375 451.693C404.047 449.465 404.392 445.316 402.993 442.601L403.653 442.261L402.993 442.601C401.929 440.536 399.841 439.341 397.386 438.857C394.931 438.372 392.22 438.626 390.113 439.357L389.863 438.635L390.113 439.357C387.939 440.111 385.685 441.625 384.077 443.571C382.47 445.516 381.559 447.824 381.906 450.197C382.358 453.291 384.786 455.309 387.416 456.602C390.026 457.884 392.645 458.354 393.112 458.431C393.864 458.556 401.559 459.683 407.065 453.891C411.528 449.196 411.347 443.343 411.295 442.289C411.274 441.866 411.599 441.507 412.022 441.486C412.444 441.465 412.803 441.791 412.824 442.213C412.881 443.362 413.092 449.773 408.175 454.946C402.096 461.34 393.676 460.077 392.861 459.941L392.986 459.186L392.861 459.941C392.342 459.855 389.55 459.356 386.741 457.976C383.951 456.605 380.953 454.266 380.391 450.418L381.148 450.307L380.391 450.418C379.963 447.494 381.105 444.764 382.896 442.596C384.687 440.429 387.177 438.755 389.612 437.91L389.862 438.634L389.612 437.91C391.962 437.095 394.95 436.815 397.683 437.355Z" fill="#242424"></path>
<path d="M341.718 564.136C341.718 564.136 312.96 575.707 295.576 579.367C290.89 580.354 292.379 589.9 292.379 589.9L358.233 587.869C359.308 587.845 360.2 587.038 360.324 585.97C360.764 582.155 361.437 571.817 358.487 568.257C357.894 567.542 356.494 568.175 355.195 568.618C353.753 569.11 351.32 576.367 342.518 569.162C341.693 568.486 342.679 565.079 341.718 564.136Z" fill="#0ead69"></path>
<path d="M386.812 564.091C386.812 564.091 358.088 575.747 340.715 579.458C336.032 580.458 337.549 590 337.549 590L403.397 587.775C404.472 587.748 405.361 586.939 405.482 585.87C405.91 582.054 406.554 571.714 403.593 568.163C402.998 567.449 401.599 568.087 400.302 568.534C398.862 569.03 396.449 576.294 387.627 569.114C386.8 568.442 387.775 565.031 386.812 564.091Z" fill="#B5CDFB"></path>
<path d="M380.433 102.861H360.104V134.307H380.433V102.861Z" fill="#E3B584"></path>
<path fill-rule="evenodd" clip-rule="evenodd" d="M388.739 121.321C389.802 121.229 390.738 122.016 390.831 123.079L388.906 123.246C390.831 123.079 390.831 123.08 390.831 123.082L390.831 123.086L390.832 123.094L390.834 123.113C390.835 123.127 390.836 123.143 390.837 123.162C390.839 123.199 390.841 123.247 390.843 123.303C390.846 123.416 390.847 123.567 390.84 123.749C390.826 124.114 390.781 124.611 390.662 125.202C390.425 126.386 389.889 127.949 388.716 129.557C386.331 132.824 381.596 135.907 372.503 136.805C363.3 137.714 357.58 135.161 354.145 132.129C352.455 130.637 351.374 129.077 350.712 127.876C350.38 127.275 350.152 126.761 350.003 126.385C349.928 126.196 349.873 126.042 349.835 125.928C349.816 125.871 349.801 125.824 349.789 125.787C349.784 125.769 349.779 125.754 349.775 125.741L349.771 125.724L349.769 125.717L349.768 125.714C349.767 125.713 349.767 125.711 351.626 125.185L349.767 125.711C349.476 124.685 350.073 123.617 351.1 123.326C352.122 123.037 353.186 123.628 353.481 124.647C353.481 124.645 353.481 124.645 353.481 124.646M353.481 124.647C353.481 124.647 353.482 124.648 353.482 124.649C353.484 124.655 353.489 124.672 353.498 124.698C353.515 124.751 353.547 124.84 353.595 124.961C353.691 125.202 353.851 125.567 354.095 126.01C354.584 126.896 355.403 128.085 356.703 129.232C359.248 131.479 363.871 133.775 372.123 132.96C380.485 132.134 384.047 129.399 385.595 127.279C386.387 126.193 386.728 125.17 386.874 124.442C386.947 124.076 386.971 123.785 386.979 123.601C386.982 123.509 386.981 123.445 386.98 123.412C386.98 123.401 386.98 123.394 386.98 123.39C386.98 123.397 386.981 123.403 386.981 123.41L386.981 123.407L386.98 123.402L386.98 123.394L386.979 123.387C386.979 123.387 386.979 123.388 386.98 123.39C386.901 122.337 387.684 121.413 388.739 121.321" fill="#0ead69"></path>
<path d="M360.104 107.439L378.65 107.63C378.65 107.63 363.014 119.918 360.104 117.926V107.439Z" fill="#242424"></path>
<path d="M368.884 109.562H358.137C345.81 109.562 335.816 99.5684 335.816 87.2412V58.5496C335.816 46.2225 345.81 36.2294 358.137 36.2294H372.688C385.015 36.2294 395.008 46.2225 395.008 58.5496V83.437C395.008 97.8652 383.312 109.562 368.884 109.562Z" fill="#E3B584"></path>
<path d="M394.991 77.6911C399.168 77.6911 402.555 73.8631 402.555 69.1411C402.555 64.4191 399.168 60.5912 394.991 60.5912C390.814 60.5912 387.428 64.4191 387.428 69.1411C387.428 73.8631 390.814 77.6911 394.991 77.6911Z" fill="#E3B584"></path>
<path d="M321.076 33.6267C320.585 29.0828 319.8 22.045 324.529 18.8288C329.003 15.7855 335.998 17.3942 338.833 21.0485C341.363 24.3085 340.332 28.8743 341.053 28.9407C342.178 29.0442 341.503 17.6533 347.959 12.9096C352.003 9.93822 358.729 9.65961 361.524 12.6629C366.173 17.6597 362.308 24.8413 363.359 25.2592C364.536 25.727 365.78 13.4299 376.815 10.4432C383.775 8.55961 392.674 13.0239 393.093 17.349C393.719 23.8181 375.52 31.4628 375.335 31.1604C375.173 30.8949 386.46 20.5137 396.299 23.0215C400.372 24.0597 404.086 27.2786 405.424 31.407C407.565 38.0079 403.599 45.5411 398.519 47.6848C395.506 48.9561 394.411 47.3595 386.99 46.9853C380.72 46.669 375.932 47.5282 370.712 48.4651C362.941 49.8598 362.271 50.985 356.591 52.1242C349.914 53.4632 335.882 56.2774 327.469 48.4651C322.146 43.5212 321.383 36.4678 321.076 33.6267Z" fill="#242424"></path>
<path d="M375.027 46.531C375.027 46.531 386.616 62.5125 385.906 70.0422C385.196 77.5719 393.447 70.0422 393.447 70.0422C393.447 70.0422 394.133 61.3962 395.904 61.2628C397.674 61.1294 401.555 45.8058 393.305 44.2691C385.054 42.7324 375.027 46.531 375.027 46.531Z" fill="#242424"></path>
<path fill-rule="evenodd" clip-rule="evenodd" d="M343.024 64.5254C343.128 65.5874 342.351 66.532 341.289 66.6353L331.209 67.6152C330.147 67.7184 329.202 66.9412 329.099 65.8792C328.996 64.8173 329.773 63.8727 330.835 63.7694L340.915 62.7895C341.977 62.6862 342.921 63.4634 343.024 64.5254Z" fill="#242424"></path>
<path fill-rule="evenodd" clip-rule="evenodd" d="M359.566 65.3479C359.757 64.298 360.762 63.6011 361.812 63.7913L371.085 65.4713C372.135 65.6615 372.832 66.6668 372.642 67.7167C372.451 68.7666 371.446 69.4635 370.396 69.2733L361.123 67.5933C360.073 67.4031 359.376 66.3978 359.566 65.3479Z" fill="#242424"></path>
<path fill-rule="evenodd" clip-rule="evenodd" d="M347.273 68.3097C347.603 68.4411 347.765 68.8155 347.634 69.1461C344.95 75.8976 344.064 80.7167 343.728 83.5357C343.651 84.1885 343.587 84.8772 343.654 85.5042C343.72 86.1293 343.909 86.6093 344.261 86.9281L343.831 87.4038L344.261 86.9281C344.566 87.204 344.987 87.3542 345.515 87.3919C346.044 87.4297 346.637 87.3501 347.221 87.2088C348.39 86.9261 349.404 86.4269 349.581 86.3375C349.899 86.1772 350.286 86.3047 350.446 86.6222C350.607 86.9397 350.479 87.3271 350.162 87.4873C349.955 87.5916 348.837 88.1431 347.524 88.4607C346.868 88.6194 346.133 88.7273 345.423 88.6766C344.711 88.6257 343.981 88.4113 343.397 87.8832C342.717 87.2679 342.457 86.4285 342.373 85.6409C342.289 84.8552 342.372 84.0378 342.45 83.3834L343.089 83.4595L342.45 83.3834C342.798 80.4604 343.709 75.532 346.437 68.6703C346.568 68.3398 346.942 68.1784 347.273 68.3097Z" fill="#242424"></path>
<path fill-rule="evenodd" clip-rule="evenodd" d="M358.593 92.7508C358.948 92.7206 359.26 92.9834 359.29 93.3377C359.509 95.911 358.081 98.3411 355.774 99.3271C353.208 100.423 350.13 99.4893 348.523 97.0826C348.325 96.7868 348.405 96.3869 348.7 96.1894C348.996 95.9918 349.396 96.0714 349.594 96.3672C350.869 98.2757 353.291 98.9874 355.268 98.1427C357.045 97.3833 358.18 95.4876 358.007 93.4471C357.976 93.0928 358.239 92.781 358.593 92.7508Z" fill="#242424"></path>
<path d="M335.036 76.0556C335.896 76.0556 336.593 75.3585 336.593 74.4985C336.593 73.6385 335.896 72.9414 335.036 72.9414C334.176 72.9414 333.479 73.6385 333.479 74.4985C333.479 75.3585 334.176 76.0556 335.036 76.0556Z" fill="#242424"></path>
<path d="M361.467 75.1094C362.327 75.1094 363.024 74.4123 363.024 73.5523C363.024 72.6924 362.327 71.9952 361.467 71.9952C360.607 71.9952 359.91 72.6924 359.91 73.5523C359.91 74.4123 360.607 75.1094 361.467 75.1094Z" fill="#242424"></path>
<path fill-rule="evenodd" clip-rule="evenodd" d="M318.211 134.09C318.549 134.344 318.617 134.824 318.362 135.162L318.014 134.899C318.362 135.162 318.362 135.162 318.362 135.162L318.359 135.166L318.347 135.182L318.301 135.244C318.26 135.3 318.198 135.383 318.118 135.492C317.958 135.711 317.724 136.034 317.43 136.448C316.843 137.276 316.018 138.468 315.069 139.922C313.169 142.833 310.781 146.777 308.811 150.936C306.833 155.11 305.309 159.43 305.077 163.109C304.847 166.758 305.882 169.627 308.862 171.232C310.176 171.94 311.499 172.626 312.806 173.303C314.773 174.322 316.701 175.321 318.499 176.343C321.511 178.057 324.269 179.896 326.461 182.155C328.664 184.424 330.293 187.114 331.05 190.511C331.804 193.898 331.681 197.937 330.463 202.893C329.568 206.539 328.612 209.986 327.717 213.212C327.412 214.313 327.113 215.389 326.827 216.438C325.699 220.571 324.758 224.286 324.274 227.594C323.789 230.904 323.771 233.746 324.441 236.15C325.104 238.527 326.451 240.516 328.785 242.127C331.415 243.94 333.497 246.826 335.145 250.057C336.798 253.296 338.045 256.945 338.973 260.354C339.901 263.766 340.516 266.959 340.899 269.298C341.09 270.468 341.224 271.426 341.309 272.093C341.352 272.426 341.383 272.687 341.404 272.865C341.409 272.915 341.414 272.958 341.418 272.995C341.422 273.024 341.424 273.049 341.426 273.069L341.432 273.122L341.434 273.14L341.434 273.141C341.434 273.142 341.434 273.142 340.673 273.219L341.434 273.141C341.477 273.562 341.17 273.938 340.75 273.981C340.329 274.023 339.954 273.717 339.911 273.296L339.909 273.281L339.904 273.233C339.902 273.21 339.899 273.182 339.895 273.147C339.891 273.116 339.887 273.08 339.883 273.039C339.863 272.868 339.833 272.614 339.791 272.289C339.707 271.637 339.576 270.696 339.388 269.546C339.011 267.242 338.406 264.103 337.495 260.756C336.583 257.405 335.37 253.866 333.782 250.752C332.189 247.63 330.249 244.996 327.916 243.387C325.288 241.574 323.726 239.285 322.966 236.561C322.214 233.862 322.26 230.778 322.759 227.372C323.258 223.963 324.222 220.169 325.35 216.034C325.639 214.974 325.94 213.891 326.247 212.785C327.14 209.565 328.087 206.149 328.976 202.528C330.155 197.73 330.245 193.939 329.556 190.844C328.868 187.759 327.396 185.315 325.363 183.221C323.319 181.116 320.708 179.361 317.741 177.674C315.959 176.66 314.089 175.691 312.151 174.688C310.841 174.009 309.501 173.315 308.136 172.58C304.442 170.591 303.296 167.013 303.549 163.012C303.8 159.041 305.423 154.51 307.427 150.281C309.438 146.036 311.866 142.028 313.787 139.085C314.748 137.613 315.585 136.404 316.181 135.562C316.48 135.142 316.718 134.812 316.883 134.588C316.965 134.476 317.028 134.389 317.072 134.331L317.121 134.265L317.134 134.247L317.139 134.241C317.139 134.241 317.139 134.241 317.751 134.701L317.139 134.241C317.393 133.904 317.873 133.835 318.211 134.09Z" fill="#242424"></path>
<path d="M589.036 477.319L599.855 460.671L584.557 461.182L589.036 477.319Z" fill="#0ead69"></path>
<path d="M554.203 352.364L467.462 378.766L462.703 386.449L550.696 364.869L554.203 352.364Z" fill="#B5CDFB"></path>
<path d="M589.035 477.319L489.989 504.811L462.703 386.449L544.78 361.341L589.035 477.319Z" fill="#0ead69"></path>
<path d="M544.781 361.341L548.404 361.422L554.204 352.364L599.855 460.67L587.493 466.678L589.036 477.319" fill="#1c744f"></path>
<path fill-rule="evenodd" clip-rule="evenodd" d="M508.542 343.345L508.755 343.547C511.638 346.275 514.799 349.669 517.896 353.811C520.283 357.001 523.313 363.032 525.986 368.831C528.66 374.632 531.004 380.262 532.029 382.726L532.037 382.745L531.003 383.176L530.996 383.159C529.971 380.697 527.633 375.082 524.968 369.3C522.288 363.486 519.303 357.563 516.999 354.482C514.021 350.5 510.983 347.218 508.198 344.563L499.729 346.353C497.399 349.746 494.039 355.569 492.342 363.519C491.583 367.074 491.687 373.372 492.067 379.333C492.446 385.272 493.092 390.786 493.384 392.725L492.276 392.892C491.979 390.916 491.329 385.37 490.949 379.405C490.57 373.463 490.45 367.014 491.246 363.285C493.014 355.001 496.547 348.974 498.934 345.532L499.061 345.349L508.542 343.345Z" fill="#242424"></path>
<path d="M492.705 395.741C494.572 395.741 496.086 394.228 496.086 392.361C496.086 390.493 494.572 388.98 492.705 388.98C490.838 388.98 489.324 390.493 489.324 392.361C489.324 394.228 490.838 395.741 492.705 395.741Z" fill="#414042"></path>
<path d="M531.674 386.892C533.541 386.892 535.055 385.379 535.055 383.512C535.055 381.645 533.541 380.131 531.674 380.131C529.807 380.131 528.293 381.645 528.293 383.512C528.293 385.379 529.807 386.892 531.674 386.892Z" fill="#414042"></path>
<path fill-rule="evenodd" clip-rule="evenodd" d="M495.268 348.325L504.077 348.876L504.215 349.105C504.657 349.84 505.968 351.536 507.735 353.788C508.062 354.205 508.404 354.64 508.758 355.09C510.299 357.05 512.063 359.293 513.801 361.571C515.936 364.372 518.04 367.235 519.648 369.704C520.452 370.938 521.138 372.081 521.644 373.074C522.142 374.053 522.491 374.933 522.577 375.626L521.564 375.752C521.501 375.245 521.223 374.497 520.734 373.537C520.252 372.589 519.587 371.48 518.793 370.261C517.205 367.825 515.12 364.985 512.989 362.19C511.257 359.918 509.499 357.683 507.957 355.723C507.603 355.272 507.26 354.837 506.932 354.418C505.34 352.39 504.064 350.744 503.486 349.862L495.628 349.371C495.382 349.634 495.091 350.088 494.772 350.747C494.399 351.514 494.015 352.498 493.628 353.638C492.854 355.918 492.084 358.779 491.388 361.689C489.996 367.511 488.914 373.467 488.699 375.23L487.686 375.106C487.907 373.29 488.998 367.292 490.395 361.451C491.094 358.529 491.872 355.633 492.661 353.31C493.055 352.15 493.455 351.122 493.853 350.301C494.243 349.499 494.66 348.831 495.112 348.455L495.268 348.325Z" fill="#242424"></path>
<path d="M544.951 483.456L558.502 471.48L544.951 468.203V483.456Z" fill="#1c744f"></path>
<path d="M544.822 365.309L462.265 367.35L456.217 372.933L538.698 375.429L544.822 365.309Z" fill="#B5CDFB"></path>
<path d="M544.951 483.456H451.33L456.216 372.933L534.364 370.892L544.951 483.456Z" fill="#1c744f"></path>
<path d="M534.365 370.892L537.525 371.846L544.822 365.309L558.502 471.48L546.19 473.741L544.952 483.456" fill="#B5CDFB"></path>
<path fill-rule="evenodd" clip-rule="evenodd" d="M493.233 340.442L493.435 340.455C494.238 340.505 495.32 340.921 496.47 341.456C497.637 342.001 498.956 342.71 500.257 343.409L500.266 343.414C501.577 344.119 502.871 344.814 504.01 345.345C505.17 345.886 506.09 346.217 506.677 346.253L506.944 346.27L507.082 346.499C508.948 349.596 510.895 353.345 512.605 357.734C513.922 361.115 515.112 367.146 516.045 372.886C516.979 378.629 517.664 384.141 517.964 386.553L517.967 386.572L516.954 386.698L516.952 386.681C516.652 384.271 515.968 378.774 515.038 373.05C514.102 367.295 512.925 361.37 511.653 358.104C510.008 353.878 508.138 350.254 506.338 347.242C505.571 347.129 504.601 346.747 503.579 346.27C502.411 345.726 501.093 345.017 499.791 344.318L499.782 344.313C498.471 343.608 497.177 342.912 496.038 342.382C495.018 341.906 494.183 341.593 493.597 341.499C493.503 341.619 493.384 341.804 493.241 342.068C493.029 342.463 492.792 342.987 492.533 343.629C492.018 344.912 491.433 346.628 490.807 348.643C489.556 352.673 488.153 357.863 486.825 363.096C484.166 373.581 481.826 384.164 481.613 385.915L480.6 385.791C480.823 383.962 483.182 373.307 485.836 362.845C487.166 357.605 488.574 352.395 489.832 348.341C490.461 346.315 491.055 344.568 491.586 343.248C491.852 342.589 492.105 342.026 492.342 341.585C492.571 341.159 492.815 340.79 493.077 340.572L493.233 340.442Z" fill="#242424"></path>
<path d="M481.107 388.509C482.807 388.509 484.186 387.13 484.186 385.429C484.186 383.729 482.807 382.35 481.107 382.35C479.406 382.35 478.027 383.729 478.027 385.429C478.027 387.13 479.406 388.509 481.107 388.509Z" fill="white"></path>
<path d="M517.46 390.235C519.161 390.235 520.539 388.856 520.539 387.156C520.539 385.455 519.161 384.077 517.46 384.077C515.759 384.077 514.381 385.455 514.381 387.156C514.381 388.856 515.759 390.235 517.46 390.235Z" fill="white"></path>
<path d="M506.991 327.543C506.901 328.028 518.658 354.284 512.129 357.919C509.008 358.509 502.935 359.116 498.936 359.041C494.936 358.966 494.411 359.537 490.735 359.522C488.518 359.513 488.706 354.313 489.204 350.186C489.523 347.545 490.852 347.674 488.192 347.685L485.558 351.258C485.558 351.258 479.093 341.486 480.399 336.711C481.705 331.937 506.991 327.543 506.991 327.543Z" fill="#E3B584"></path>
<path d="M471.77 347.165C449.225 283.07 422.504 210.895 416.811 201.057C416.879 201.176 416.947 201.28 417.008 201.372L437.087 158.804C439.605 162.657 465.261 179.131 491.689 260.716C503.413 296.912 516.904 330.902 517.026 331.246L471.77 347.165Z" fill="#0ead69"></path>
<path fill-rule="evenodd" clip-rule="evenodd" d="M423.19 131.611C423.527 131.356 424.007 131.424 424.262 131.762L423.65 132.222C424.262 131.762 424.261 131.761 424.262 131.762L424.266 131.768L424.279 131.785L424.328 131.85C424.37 131.908 424.433 131.992 424.514 132.102C424.675 132.323 424.909 132.646 425.202 133.059C425.788 133.885 426.608 135.071 427.552 136.516C429.437 139.404 431.819 143.338 433.793 147.503C435.76 151.654 437.354 156.102 437.6 160.002C437.848 163.93 436.723 167.448 433.091 169.404C431.752 170.125 430.436 170.806 429.151 171.472C427.25 172.456 425.415 173.407 423.666 174.401C420.756 176.057 418.195 177.778 416.191 179.842C414.198 181.896 412.754 184.292 412.081 187.316C411.405 190.35 411.493 194.067 412.649 198.774C413.522 202.327 414.451 205.678 415.327 208.838C415.628 209.923 415.923 210.986 416.207 212.027C417.315 216.083 418.26 219.807 418.75 223.153C419.24 226.497 419.286 229.525 418.547 232.176C417.8 234.853 416.265 237.101 413.684 238.882C411.397 240.459 409.495 243.041 407.933 246.104C406.375 249.158 405.184 252.63 404.29 255.917C403.396 259.201 402.803 262.281 402.433 264.541C402.248 265.67 402.12 266.593 402.037 267.232C401.996 267.551 401.967 267.8 401.947 267.968C401.938 268.052 401.931 268.116 401.926 268.158L401.921 268.206L401.92 268.217L401.92 268.22C401.877 268.64 401.502 268.947 401.081 268.905C400.66 268.862 400.354 268.486 400.397 268.066L401.158 268.143C400.397 268.066 400.397 268.066 400.397 268.066L400.397 268.064L400.397 268.06L400.399 268.046L400.404 267.994C400.409 267.949 400.416 267.881 400.426 267.794C400.446 267.619 400.477 267.363 400.519 267.036C400.603 266.382 400.734 265.442 400.922 264.293C401.298 261.998 401.901 258.864 402.812 255.515C403.723 252.169 404.947 248.589 406.569 245.408C408.187 242.237 410.231 239.403 412.814 237.622C415.103 236.044 416.422 234.094 417.072 231.765C417.729 229.409 417.711 226.623 417.235 223.375C416.76 220.13 415.837 216.486 414.73 212.43C414.449 211.401 414.157 210.345 413.857 209.265C412.979 206.099 412.041 202.716 411.162 199.139C409.967 194.274 409.845 190.309 410.586 186.983C411.33 183.647 412.929 181.005 415.093 178.776C417.245 176.558 419.953 174.753 422.909 173.071C424.673 172.067 426.566 171.087 428.496 170.087C429.778 169.422 431.077 168.75 432.366 168.056C435.283 166.485 436.298 163.676 436.072 160.098C435.844 156.491 434.35 152.254 432.409 148.159C430.476 144.079 428.133 140.209 426.27 137.353C425.339 135.927 424.529 134.757 423.953 133.944C423.665 133.538 423.435 133.222 423.278 133.007C423.2 132.9 423.139 132.818 423.099 132.763L423.053 132.702L423.042 132.687L423.039 132.684C423.039 132.683 423.039 132.683 423.398 132.412L423.039 132.683C422.784 132.345 422.852 131.865 423.19 131.611Z" fill="#242424"></path>
</svg>