<svg width="200" height="150" viewBox="0 0 800 600" fill="none" xmlns="http://www.w3.org/2000/svg" data-reactroot="">
<path d="M295.142 156.143L295.909 182.343C294.911 184.108 279.877 170.092 276.907 166.333C272.263 160.453 272.764 150.634 273.762 148.869L287.075 154.167C288.072 152.401 288.039 140.511 289.804 141.509H289.804C292.047 141.301 294.094 142.794 294.565 144.997C295.429 149.034 295.815 154.953 295.142 156.143Z" fill="#CEA28B"></path>
<path d="M295.142 156.143L295.909 182.343C294.911 184.108 279.877 170.092 276.907 166.333C272.263 160.453 272.764 150.634 273.762 148.869L287.075 154.167C288.072 152.401 295.815 154.953 295.142 156.143Z" fill="#E4B69D"></path>
<path d="M326.414 201.885C326.414 201.885 300.519 165.656 299.242 164.821C292.105 160.152 283.156 152.372 282.438 151.916C274.808 147.066 280.74 169.037 286.64 174.468C289.025 176.664 292.736 178.752 295.076 182.371C303.576 195.514 309.703 215.659 310.295 215.456C319.134 212.428 326.414 201.885 326.414 201.885Z" fill="#E4B69D"></path>
<path d="M310.99 174.052H310.99C309.324 175.613 307.986 176.467 306.502 174.733L267.022 128.275C265.32 126.698 266.42 125.505 268.305 124.759C269.651 124.226 272.602 123.343 274.087 125.077L311.294 168.522C312.688 170.15 312.554 172.587 310.99 174.052Z" fill="#63d4a5"></path>
<path d="M309.065 175.369C308.1 176.329 306.055 175.683 304.57 173.95L267.363 130.504C265.968 128.876 265.584 126.884 266.49 125.982H266.49C267.455 125.022 269.501 125.668 270.985 127.402L308.192 170.847C309.587 172.475 309.971 174.468 309.065 175.369Z" fill="#0ead69"></path>
<path d="M286.019 138.841L279.403 153.965C278.561 155.888 272.92 150.792 273.761 148.869L279.055 135.794C279.897 133.871 282.138 132.994 284.061 133.835H284.061C285.984 134.677 286.861 136.918 286.019 138.841Z" fill="#E4B69D"></path>
<path d="M291.178 148.718L285.172 161.023C284.283 162.845 282.085 163.601 280.263 162.712H280.263C278.441 161.823 277.685 159.625 278.574 157.803L284.58 145.498C285.469 143.676 287.667 142.92 289.489 143.809L289.489 143.809C291.311 144.698 292.067 146.896 291.178 148.718Z" fill="#E4B69D"></path>
<path d="M295.702 157.479L290.023 167.532C289.086 169.191 286.981 169.777 285.322 168.839L284.938 168.622C283.278 167.685 282.693 165.58 283.63 163.921L289.309 153.868C290.247 152.209 292.352 151.623 294.011 152.561L294.395 152.778C296.054 153.715 296.64 155.82 295.702 157.479Z" fill="#E4B69D"></path>
<path d="M297.75 163.956L293.389 171.676C292.669 172.95 291.053 173.4 289.779 172.68L289.484 172.513C288.209 171.794 287.76 170.177 288.48 168.903L292.841 161.183C293.561 159.909 295.177 159.459 296.451 160.179L296.746 160.346C298.021 161.066 298.47 162.682 297.75 163.956Z" fill="#E4B69D"></path>
<path fill-rule="evenodd" clip-rule="evenodd" d="M315.717 241.278L315.37 241.517L284.303 196.202L323.869 169.075L337.513 188.976C339.596 186.566 341.736 184.087 343.881 181.599C350.622 173.782 357.374 165.927 362.441 160.026C364.975 157.075 367.086 154.614 368.564 152.891C369.303 152.029 369.883 151.353 370.279 150.891L370.883 150.186C370.883 150.186 370.884 150.185 389.098 165.793C407.312 181.4 407.312 181.4 407.311 181.401L406.701 182.113C406.303 182.577 405.72 183.257 404.978 184.121C403.495 185.851 401.378 188.319 398.837 191.278C393.757 197.194 386.983 205.075 380.212 212.927C373.448 220.771 366.658 228.621 361.558 234.459C359.021 237.364 356.838 239.845 355.267 241.597C354.512 242.439 353.753 243.274 353.123 243.939C352.892 244.182 352.289 244.817 351.577 245.475L351.572 245.48C351.475 245.571 350.072 246.904 348.115 248.157C347.509 248.545 346.267 249.306 344.58 250.026C343.47 250.5 339.205 252.302 333.453 251.892C330.619 251.519 324.555 249.482 321.492 247.68C319.765 246.27 317.54 243.736 315.717 241.278ZM318.326 210.915C318.267 210.977 318.276 210.966 318.338 210.903C318.334 210.907 318.33 210.911 318.326 210.915Z" fill="#0ead69"></path>
<path d="M525.247 314.459C525.128 314.938 532.581 341.127 525.849 344.373C522.7 344.779 522.79 332.151 522.79 332.151C522.79 332.151 522.51 348.627 518.521 348.318C514.532 348.008 515.332 331.829 515.332 331.829C515.332 331.829 513.975 348.547 510.306 348.317C506.637 348.086 504.586 323.526 504.586 323.526C504.586 323.526 501.748 335.127 499.555 335.431C497.363 335.736 493.249 319.585 494.833 314.895C496.417 310.206 525.247 314.459 525.247 314.459Z" fill="#E4B69D"></path>
<path d="M407.383 573.552H392.935L390.502 549.667H407.383V573.552Z" fill="#E4B69D"></path>
<path d="M412.999 298.359H384.061V560.119H412.999V298.359Z" fill="#63d4a5"></path>
<path d="M457.366 298.359H428.428V560.119H457.366V298.359Z" fill="#63d4a5"></path>
<path d="M445.884 292.44H395.703V347.685H445.884V292.44Z" fill="#63d4a5"></path>
<path d="M435.025 114.206C436.476 114.287 466.752 155.147 466.752 155.147L473.273 165.579L466.752 309.539H367.078L372.552 166.739C372.552 166.739 374.18 149.922 377.176 146.62C388.698 133.925 387.645 128.313 406.114 115.101L435.025 114.206Z" fill="#B5CDFB"></path>
<path d="M458.46 132.99C458.46 132.99 493.168 140.928 514.046 213.25C534.923 285.572 534.633 322.917 534.633 322.917L482.763 319.868L463.35 189.432C463.35 189.432 450.79 147.664 458.46 132.99Z" fill="#0ead69"></path>
<path d="M406.113 115.101C406.113 115.101 383.403 141.829 395.241 159.587C407.08 177.344 408.565 326.976 408.565 326.976L363.344 325.161C363.344 325.161 345.041 254.664 363.428 171.738C367.412 153.77 358.216 136.066 406.113 115.101Z" fill="#0ead69"></path>
<path d="M433.903 114.206C433.903 114.206 454.457 141.829 443.733 159.587C433.009 177.344 423.107 326.975 423.107 326.975H470.556C470.556 326.975 496.051 270.74 486.846 190.597C484.535 170.48 491.096 141.829 433.903 114.206Z" fill="#0ead69"></path>
<path d="M451.197 573.552H436.749L435.936 549.667H452.817L451.197 573.552Z" fill="#E4B69D"></path>
<path d="M414.069 560.119H380.033L380.31 543.594L414.069 550.13V560.119Z" fill="#0ead69"></path>
<path d="M459.914 560.119H425.879L426.156 543.594L459.914 550.13V560.119Z" fill="#0ead69"></path>
<path fill-rule="evenodd" clip-rule="evenodd" d="M391.882 439.735C389.427 440.22 387.339 441.415 386.275 443.48L385.634 443.15L386.275 443.48C384.877 446.194 385.221 450.344 387.893 452.571C389.366 453.799 391.391 454.323 393.288 454.19C395.201 454.056 396.825 453.27 397.617 452.078C398.083 451.377 398.353 450.406 398.346 449.491C398.34 448.556 398.052 447.855 397.617 447.512C397.157 447.15 396.277 446.986 395.097 447.339C393.945 447.684 392.622 448.498 391.436 449.877C391.16 450.197 390.677 450.234 390.356 449.958C390.036 449.682 390 449.199 390.276 448.878C391.629 447.305 393.193 446.311 394.658 445.873C396.096 445.442 397.563 445.521 398.564 446.31L398.098 446.902L398.564 446.31C399.515 447.06 399.869 448.313 399.877 449.479C399.886 450.665 399.545 451.943 398.892 452.925L398.255 452.502L398.892 452.925C397.75 454.644 395.599 455.563 393.395 455.718C391.175 455.873 388.74 455.271 386.913 453.747C383.585 450.973 383.254 446.001 384.914 442.779C386.263 440.159 388.852 438.773 391.585 438.233C394.319 437.694 397.306 437.974 399.657 438.789C402.091 439.633 404.581 441.308 406.372 443.474C408.163 445.643 409.305 448.372 408.878 451.297C408.315 455.144 405.317 457.484 402.528 458.855C399.718 460.235 396.926 460.734 396.407 460.82L396.282 460.065L396.407 460.82C396.407 460.82 396.407 460.82 396.407 460.82C395.592 460.956 387.172 462.218 381.093 455.824L381.648 455.297L381.093 455.824C376.176 450.652 376.387 444.24 376.444 443.092C376.465 442.669 376.824 442.344 377.247 442.365C377.669 442.386 377.994 442.745 377.973 443.167C377.921 444.222 377.74 450.075 382.203 454.769C387.709 460.561 395.404 459.435 396.156 459.31L396.156 459.31C396.623 459.232 399.242 458.763 401.852 457.48C404.482 456.188 406.91 454.17 407.363 451.075C407.709 448.702 406.798 446.394 405.191 444.45C403.583 442.503 401.329 440.99 399.155 440.235L399.405 439.513L399.155 440.235C397.049 439.505 394.337 439.251 391.882 439.735Z" fill="#0ead69"></path>
<path fill-rule="evenodd" clip-rule="evenodd" d="M447.941 437.355C450.674 437.894 453.263 439.281 454.612 441.9C456.272 445.123 455.941 450.095 452.613 452.869C450.786 454.392 448.351 454.995 446.131 454.839C443.927 454.684 441.776 453.766 440.634 452.047L440.634 452.047C439.981 451.064 439.64 449.787 439.649 448.601C439.657 447.434 440.011 446.181 440.962 445.432L441.436 446.033L440.962 445.432C441.963 444.642 443.43 444.564 444.868 444.994C446.333 445.432 447.897 446.427 449.25 448C449.526 448.32 449.49 448.804 449.17 449.079C448.849 449.355 448.366 449.319 448.09 448.998C446.904 447.62 445.581 446.806 444.429 446.461C443.249 446.108 442.369 446.272 441.909 446.634L441.909 446.634C441.474 446.977 441.186 447.677 441.18 448.612C441.173 449.528 441.443 450.499 441.909 451.199C442.701 452.392 444.325 453.178 446.238 453.312C448.135 453.445 450.16 452.921 451.633 451.693L452.123 452.281L451.633 451.693C454.305 449.465 454.649 445.316 453.251 442.602C452.187 440.536 450.098 439.341 447.644 438.857C445.189 438.372 442.477 438.627 440.371 439.357L440.121 438.636L440.371 439.357C438.197 440.111 435.943 441.625 434.334 443.571C432.728 445.516 431.817 447.824 432.163 450.197C432.616 453.292 435.044 455.31 437.674 456.602C440.284 457.885 442.903 458.354 443.37 458.431C444.122 458.556 451.817 459.683 457.323 453.891C461.786 449.196 461.605 443.343 461.553 442.289C461.532 441.867 461.857 441.507 462.279 441.486C462.702 441.466 463.061 441.791 463.082 442.213C463.138 443.362 463.35 449.774 458.433 454.946L457.878 454.418L458.433 454.946C452.354 461.34 443.934 460.077 443.119 459.942L443.244 459.187L443.119 459.942C442.6 459.855 439.808 459.357 436.998 457.976C434.209 456.606 431.211 454.266 430.648 450.418L431.405 450.308L430.648 450.418C430.221 447.494 431.363 444.764 433.154 442.596C434.945 440.429 437.435 438.755 439.869 437.911L440.12 438.634L439.869 437.911C442.22 437.095 445.207 436.815 447.941 437.355Z" fill="#0ead69"></path>
<path d="M391.976 564.136C391.976 564.136 363.218 575.708 345.834 579.367C341.148 580.354 342.637 589.9 342.637 589.9L408.491 587.869C409.566 587.845 410.458 587.039 410.581 585.97C411.021 582.155 411.695 571.817 408.745 568.257C408.152 567.542 406.752 568.175 405.452 568.619C404.011 569.11 401.577 576.367 392.776 569.162C391.951 568.487 392.937 565.079 391.976 564.136Z" fill="#63d4a5"></path>
<path d="M437.068 564.091C437.068 564.091 408.344 575.747 390.971 579.458C386.288 580.458 387.805 590 387.805 590L453.652 587.775C454.728 587.748 455.617 586.939 455.737 585.87C456.166 582.054 456.809 571.714 453.849 568.163C453.254 567.449 451.855 568.087 450.557 568.534C449.117 569.03 446.705 576.294 437.882 569.114C437.056 568.442 438.031 565.031 437.068 564.091Z" fill="#0ead69"></path>
<path d="M430.689 102.861H410.359V134.307H430.689V102.861Z" fill="#E4B69D"></path>
<path fill-rule="evenodd" clip-rule="evenodd" d="M438.995 121.321C440.058 121.229 440.994 122.016 441.087 123.079L439.162 123.246C441.087 123.079 441.087 123.08 441.087 123.082L441.087 123.086L441.088 123.094L441.089 123.113C441.09 123.127 441.091 123.143 441.093 123.162C441.095 123.2 441.097 123.247 441.099 123.304C441.102 123.417 441.102 123.567 441.095 123.749C441.081 124.114 441.037 124.611 440.918 125.202C440.68 126.386 440.145 127.949 438.972 129.557C436.586 132.824 431.852 135.907 422.759 136.805C413.556 137.714 407.836 135.161 404.401 132.129C402.711 130.637 401.63 129.077 400.968 127.876C400.636 127.275 400.408 126.761 400.259 126.385C400.184 126.197 400.129 126.042 400.091 125.928C400.072 125.871 400.057 125.824 400.045 125.788C400.04 125.769 400.035 125.754 400.031 125.741L400.026 125.724L400.024 125.717L400.024 125.714C400.023 125.713 400.023 125.712 401.882 125.185L400.023 125.712C399.732 124.685 400.329 123.617 401.356 123.327C402.378 123.037 403.441 123.628 403.737 124.647C403.737 124.645 403.736 124.645 403.737 124.646M403.737 124.647C403.737 124.647 403.737 124.648 403.738 124.649C403.74 124.656 403.745 124.672 403.754 124.699C403.771 124.751 403.803 124.84 403.851 124.961C403.946 125.202 404.107 125.567 404.351 126.01C404.84 126.897 405.659 128.085 406.958 129.232C409.504 131.479 414.127 133.775 422.379 132.96C430.741 132.134 434.303 129.399 435.851 127.279C436.643 126.193 436.984 125.17 437.13 124.442C437.203 124.076 437.227 123.786 437.234 123.601C437.238 123.509 437.237 123.445 437.236 123.412C437.236 123.401 437.236 123.394 437.235 123.39C437.236 123.397 437.236 123.403 437.237 123.41L437.237 123.407L437.236 123.402L437.236 123.394L437.235 123.387C437.235 123.387 437.235 123.388 437.235 123.39C437.156 122.337 437.939 121.413 438.995 121.321" fill="#0ead69"></path>
<path d="M410.359 107.439L428.906 107.629C428.906 107.629 413.27 119.918 410.359 117.925V107.439Z" fill="#161F40"></path>
<path d="M419.142 109.562H408.394C396.067 109.562 386.074 99.5685 386.074 87.2414V58.5498C386.074 46.2226 396.067 36.2295 408.394 36.2295H422.946C435.273 36.2295 445.266 46.2226 445.266 58.5498V83.4371C445.266 97.8653 433.57 109.562 419.142 109.562Z" fill="#E4B69D"></path>
<path d="M445.249 81.9385C449.426 81.9385 452.812 78.1106 452.812 73.3886C452.812 68.6666 449.426 64.8386 445.249 64.8386C441.072 64.8386 437.686 68.6666 437.686 73.3886C437.686 78.1106 441.072 81.9385 445.249 81.9385Z" fill="#E4B69D"></path>
<path d="M371.332 33.6267C370.84 29.0828 370.056 22.045 374.785 18.8288C379.259 15.7855 386.254 17.3942 389.089 21.0485C391.619 24.3085 390.588 28.8743 391.309 28.9407C392.434 29.0442 391.759 17.6533 398.215 12.9096C402.259 9.93822 408.985 9.65961 411.78 12.6629C416.429 17.6597 412.564 24.8413 413.615 25.2592C414.792 25.727 416.036 13.4299 427.071 10.4432C434.031 8.55961 442.929 13.0239 443.349 17.349C443.975 23.8181 425.776 31.4628 425.591 31.1604C425.429 30.8949 436.716 20.5137 446.555 23.0215C450.628 24.0597 454.341 27.2786 455.68 31.407C457.821 38.0079 453.855 45.5411 448.774 47.6848C445.761 48.9561 444.666 47.3595 437.246 46.9853C430.976 46.669 426.188 47.5282 420.968 48.4651C413.197 49.8598 412.527 50.985 406.847 52.1242C400.17 53.4632 386.138 56.2774 377.725 48.4651C372.401 43.5212 371.639 36.4678 371.332 33.6267Z" fill="#161F40"></path>
<path d="M425.285 46.5311C425.285 46.5311 436.874 62.5125 436.164 70.0422C435.454 77.5719 443.705 70.0422 443.705 70.0422C443.705 70.0422 444.009 64.8458 445.779 64.7124C447.55 64.579 453.517 48.021 445.266 46.4843C437.016 44.9476 425.285 46.5311 425.285 46.5311Z" fill="#161F40"></path>
<path fill-rule="evenodd" clip-rule="evenodd" d="M393.282 64.5254C393.386 65.5874 392.608 66.532 391.546 66.6353L381.467 67.6152C380.405 67.7184 379.46 66.9412 379.357 65.8792C379.254 64.8173 380.031 63.8727 381.093 63.7694L391.172 62.7895C392.234 62.6862 393.179 63.4634 393.282 64.5254Z" fill="#161F40"></path>
<path fill-rule="evenodd" clip-rule="evenodd" d="M409.824 65.3481C410.014 64.2982 411.02 63.6013 412.07 63.7915L421.343 65.4715C422.393 65.6617 423.09 66.6671 422.899 67.717C422.709 68.7669 421.704 69.4638 420.654 69.2736L411.381 67.5936C410.331 67.4033 409.634 66.398 409.824 65.3481Z" fill="#161F40"></path>
<path fill-rule="evenodd" clip-rule="evenodd" d="M399.15 68.3099C399.48 68.4412 399.642 68.8157 399.511 69.1462C396.827 75.8977 395.941 80.7168 395.605 83.5358L394.966 83.4596L395.605 83.5358C395.528 84.1887 395.464 84.8773 395.531 85.5043C395.597 86.1294 395.786 86.6094 396.138 86.9282L395.708 87.4039L396.138 86.9282C396.443 87.2042 396.864 87.3544 397.392 87.392C397.921 87.4299 398.514 87.3503 399.098 87.2089C400.267 86.9262 401.281 86.427 401.458 86.3376C401.776 86.1773 402.163 86.3048 402.323 86.6224C402.484 86.9399 402.356 87.3272 402.039 87.4874C401.832 87.5917 400.714 88.1432 399.401 88.4608C398.745 88.6196 398.01 88.7275 397.3 88.6767C396.588 88.6259 395.858 88.4115 395.274 87.8833C394.594 87.268 394.334 86.4286 394.25 85.641C394.166 84.8553 394.249 84.0379 394.326 83.3835C394.674 80.4606 395.586 75.5321 398.314 68.6705C398.445 68.3399 398.819 68.1785 399.15 68.3099Z" fill="#161F40"></path>
<path fill-rule="evenodd" clip-rule="evenodd" d="M408.849 92.7511C409.204 92.7209 409.515 92.9837 409.546 93.3381C409.765 95.9114 408.337 98.3415 406.03 99.3274C403.464 100.424 400.386 99.4897 398.778 97.083C398.581 96.7872 398.661 96.3873 398.956 96.1897C399.252 95.9922 399.652 96.0718 399.849 96.3675C401.124 98.2761 403.547 98.9878 405.524 98.143C407.301 97.3836 408.436 95.488 408.262 93.4475C408.232 93.0931 408.495 92.7814 408.849 92.7511Z" fill="#161F40"></path>
<path d="M387.989 74.4985C388.602 74.4985 389.099 74.0016 389.099 73.3887C389.099 72.7757 388.602 72.2788 387.989 72.2788C387.376 72.2788 386.879 72.7757 386.879 73.3887C386.879 74.0016 387.376 74.4985 387.989 74.4985Z" fill="#161F40"></path>
<path d="M411.76 74.4985C412.373 74.4985 412.87 74.0016 412.87 73.3887C412.87 72.7757 412.373 72.2788 411.76 72.2788C411.147 72.2788 410.65 72.7757 410.65 73.3887C410.65 74.0016 411.147 74.4985 411.76 74.4985Z" fill="#161F40"></path>
<path fill-rule="evenodd" clip-rule="evenodd" d="M370.679 137.046C371.017 137.3 371.084 137.78 370.83 138.118L370.554 137.91C370.83 138.118 370.83 138.118 370.83 138.118L370.827 138.122L370.816 138.137L370.771 138.197C370.731 138.25 370.672 138.33 370.595 138.435C370.442 138.645 370.217 138.955 369.935 139.353C369.371 140.148 368.578 141.293 367.667 142.69C365.842 145.485 363.549 149.274 361.656 153.268C359.757 157.277 358.295 161.424 358.072 164.952C357.851 168.452 358.843 171.194 361.692 172.728C362.954 173.408 364.225 174.066 365.481 174.717C367.371 175.696 369.225 176.657 370.952 177.639C373.847 179.286 376.5 181.055 378.609 183.228C380.729 185.412 382.297 188.001 383.025 191.271C383.751 194.531 383.632 198.416 382.461 203.181C381.601 206.684 380.682 209.996 379.823 213.096C379.529 214.154 379.242 215.187 378.968 216.194C377.883 220.166 376.98 223.733 376.515 226.909C376.049 230.088 376.032 232.814 376.675 235.117C377.31 237.395 378.6 239.3 380.837 240.843C383.369 242.589 385.373 245.367 386.957 248.473C388.546 251.588 389.745 255.095 390.636 258.372C391.529 261.652 392.12 264.721 392.488 266.969C392.672 268.093 392.8 269.014 392.883 269.655C392.924 269.975 392.954 270.226 392.973 270.397C392.983 270.482 392.99 270.548 392.995 270.593L393 270.644L393.002 270.658L393.002 270.661L393.002 270.662C393.002 270.663 393.002 270.663 392.241 270.74L393.002 270.662C393.045 271.083 392.739 271.459 392.318 271.502C391.897 271.545 391.522 271.238 391.479 270.818L391.479 270.815L391.478 270.803L391.473 270.757C391.471 270.736 391.468 270.71 391.464 270.679C391.461 270.648 391.457 270.612 391.452 270.571C391.433 270.406 391.404 270.163 391.364 269.85C391.283 269.224 391.158 268.321 390.977 267.216C390.615 265.004 390.034 261.989 389.159 258.774C388.283 255.556 387.118 252.157 385.593 249.169C384.064 246.171 382.204 243.645 379.968 242.103C377.437 240.358 375.932 238.153 375.2 235.528C374.476 232.93 374.52 229.962 375 226.688C375.48 223.41 376.406 219.763 377.491 215.791C377.769 214.772 378.057 213.732 378.352 212.669C379.21 209.575 380.12 206.294 380.974 202.816C382.106 198.209 382.192 194.572 381.531 191.604C380.872 188.646 379.46 186.303 377.51 184.294C375.55 182.275 373.044 180.59 370.195 178.97C368.482 177.996 366.687 177.066 364.826 176.102C363.567 175.45 362.279 174.783 360.967 174.077C357.404 172.158 356.301 168.706 356.544 164.856C356.785 161.035 358.347 156.677 360.273 152.612C362.206 148.533 364.539 144.681 366.385 141.853C367.309 140.438 368.112 139.276 368.686 138.467C368.973 138.063 369.202 137.746 369.36 137.531C369.439 137.423 369.5 137.34 369.542 137.284L369.59 137.22L369.602 137.203L369.606 137.197C369.607 137.197 369.607 137.197 370.218 137.657L369.606 137.197C369.861 136.86 370.341 136.791 370.679 137.046Z" fill="#63d4a5"></path>
<path fill-rule="evenodd" clip-rule="evenodd" d="M470.831 132.378C471.169 132.124 471.649 132.191 471.904 132.529L471.292 132.99C471.904 132.529 471.903 132.529 471.904 132.529L471.908 132.535L471.921 132.552L471.968 132.616C472.01 132.672 472.071 132.755 472.15 132.863C472.308 133.079 472.538 133.395 472.824 133.8C473.398 134.608 474.202 135.77 475.125 137.185C476.971 140.013 479.305 143.866 481.237 147.945C483.163 152.009 484.725 156.367 484.966 160.188C485.21 164.038 484.107 167.49 480.544 169.409C479.231 170.116 477.943 170.783 476.684 171.435C474.824 172.398 473.028 173.328 471.316 174.302C468.467 175.923 465.96 177.607 464 179.627C462.05 181.635 460.639 183.979 459.98 186.936C459.318 189.904 459.404 193.542 460.536 198.148C461.39 201.627 462.3 204.908 463.158 208.002C463.453 209.064 463.742 210.105 464.02 211.124C465.104 215.096 466.03 218.743 466.51 222.02C466.99 225.295 467.035 228.263 466.31 230.861C465.579 233.485 464.073 235.69 461.542 237.436C459.306 238.978 457.446 241.503 455.917 244.501C454.392 247.49 453.227 250.889 452.351 254.107C451.476 257.321 450.896 260.336 450.534 262.548C450.353 263.654 450.227 264.557 450.146 265.183C450.106 265.496 450.077 265.739 450.058 265.903C450.049 265.985 450.042 266.048 450.037 266.089L450.033 266.136L450.031 266.15C449.988 266.57 449.613 266.877 449.192 266.834C448.772 266.792 448.465 266.416 448.508 265.995L449.269 266.073C448.508 265.995 448.508 265.996 448.508 265.995L448.508 265.994L448.508 265.99L448.51 265.977L448.515 265.925C448.52 265.881 448.527 265.815 448.537 265.729C448.557 265.558 448.586 265.308 448.628 264.987C448.71 264.346 448.839 263.426 449.023 262.301C449.39 260.053 449.981 256.984 450.874 253.704C451.766 250.428 452.964 246.921 454.553 243.805C456.137 240.699 458.141 237.922 460.673 236.175C462.911 234.632 464.201 232.727 464.836 230.45C465.478 228.146 465.461 225.421 464.995 222.242C464.53 219.066 463.627 215.498 462.543 211.527C462.268 210.52 461.981 209.486 461.688 208.428C460.828 205.329 459.909 202.016 459.049 198.514C457.879 193.748 457.759 189.863 458.485 186.604C459.214 183.334 460.782 180.744 462.902 178.56C465.011 176.387 467.663 174.619 470.559 172.971C472.286 171.989 474.139 171.029 476.03 170.049C477.285 169.399 478.557 168.74 479.818 168.061C482.667 166.527 483.659 163.784 483.438 160.285C483.215 156.756 481.753 152.609 479.854 148.6C477.961 144.607 475.668 140.818 473.843 138.022C472.932 136.626 472.139 135.481 471.575 134.685C471.294 134.288 471.069 133.978 470.915 133.768C470.838 133.663 470.779 133.583 470.739 133.529L470.695 133.469L470.684 133.454L470.681 133.451C470.681 133.451 470.68 133.45 470.965 133.236L470.68 133.45C470.426 133.112 470.494 132.632 470.831 132.378Z" fill="#63d4a5"></path>
<path d="M291.615 114.356C301.523 114.356 309.555 106.324 309.555 96.4165C309.555 86.5087 301.523 78.4768 291.615 78.4768C281.708 78.4768 273.676 86.5087 273.676 96.4165C273.676 106.324 281.708 114.356 291.615 114.356Z" fill="#63d4a5"></path>
<path d="M281.73 107.439L278.824 120.756L293.115 109.561L281.73 107.439Z" fill="#63d4a5"></path>
<path d="M283 99.4067C284.651 99.4067 285.99 98.0679 285.99 96.4165C285.99 94.765 284.651 93.4263 283 93.4263C281.349 93.4263 280.01 94.765 280.01 96.4165C280.01 98.0679 281.349 99.4067 283 99.4067Z" fill="white" fill-opacity="0.5"></path>
<path d="M291.615 99.4067C293.267 99.4067 294.605 98.0679 294.605 96.4165C294.605 94.765 293.267 93.4263 291.615 93.4263C289.964 93.4263 288.625 94.765 288.625 96.4165C288.625 98.0679 289.964 99.4067 291.615 99.4067Z" fill="white"></path>
<path d="M300.23 99.4067C301.882 99.4067 303.221 98.0679 303.221 96.4165C303.221 94.765 301.882 93.4263 300.23 93.4263C298.579 93.4263 297.24 94.765 297.24 96.4165C297.24 98.0679 298.579 99.4067 300.23 99.4067Z" fill="white" fill-opacity="0.5"></path>
</svg>