<svg width="24" height="24" viewBox="0 0 24 24" fill="none" xmlns="http://www.w3.org/2000/svg" data-reactroot="">
<path fill="currentColor" d="M16 2C16 1.44772 16.4477 1 17 1H22C22.5523 1 23 1.44772 23 2V7C23 7.55228 22.5523 8 22 8C21.4477 8 21 7.55228 21 7V3H17C16.4477 3 16 2.55228 16 2Z" clip-rule="evenodd" fill-rule="evenodd" undefined="1"></path>
<path fill="currentColor" d="M22 16C22.5523 16 23 16.4477 23 17V22C23 22.5523 22.5523 23 22 23H17C16.4477 23 16 22.5523 16 22C16 21.4477 16.4477 21 17 21H21V17C21 16.4477 21.4477 16 22 16Z" clip-rule="evenodd" fill-rule="evenodd" undefined="1"></path>
<path fill="currentColor" d="M1 2C1 1.44772 1.44772 1 2 1H7C7.55228 1 8 1.44772 8 2C8 2.55228 7.55228 3 7 3H3V7C3 7.55228 2.55228 8 2 8C1.44772 8 1 7.55228 1 7V2Z" clip-rule="evenodd" fill-rule="evenodd" undefined="1"></path>
<path fill="currentColor" d="M2 16C2.55228 16 3 16.4477 3 17V21H7C7.55228 21 8 21.4477 8 22C8 22.5523 7.55228 23 7 23H2C1.44772 23 1 22.5523 1 22V17C1 16.4477 1.44772 16 2 16Z" clip-rule="evenodd" fill-rule="evenodd" undefined="1"></path>
<path fill="currentColor" d="M6 6V13H4V6H6Z" clip-rule="evenodd" fill-rule="evenodd" undefined="1"></path>
<path fill="currentColor" d="M13 6V13H11V6H13Z" clip-rule="evenodd" fill-rule="evenodd" undefined="1"></path>
<path fill="currentColor" d="M20 6V13H18V6H20Z" clip-rule="evenodd" fill-rule="evenodd" undefined="1"></path>
<path fill="currentColor" d="M14 6H17V13H14V6Z" clip-rule="evenodd" fill-rule="evenodd" undefined="1"></path>
<path fill="currentColor" d="M7 6H10V13H7V6Z" clip-rule="evenodd" fill-rule="evenodd" undefined="1"></path>
<path fill="currentColor" d="M6 14V18H4V14H6Z" clip-rule="evenodd" fill-rule="evenodd" undefined="1"></path>
<path fill="currentColor" d="M13 14V18H11V14H13Z" clip-rule="evenodd" fill-rule="evenodd" undefined="1"></path>
<path fill="currentColor" d="M20 14V18H18V14H20Z" clip-rule="evenodd" fill-rule="evenodd" undefined="1"></path>
<path fill="currentColor" d="M14 14H17V18H14V14Z" clip-rule="evenodd" fill-rule="evenodd" undefined="1"></path>
<path fill="currentColor" d="M7 14H10V18H7V14Z" clip-rule="evenodd" fill-rule="evenodd" undefined="1"></path>
<path fill="currentColor" d="M1 12C1 11.4477 1.44772 11 2 11H22C22.5523 11 23 11.4477 23 12C23 12.5523 22.5523 13 22 13H2C1.44772 13 1 12.5523 1 12Z" clip-rule="evenodd" fill-rule="evenodd" undefined="1"></path>
</svg>