<svg width="24" height="24" viewBox="0 0 24 24" fill="none" xmlns="http://www.w3.org/2000/svg" data-reactroot="">
<path fill="currentColor" d="M16.0429 5.44289C16.6334 4.85237 17.5766 4.85237 18.1671 5.44289C18.7576 6.03342 18.7576 6.97658 18.1671 7.56711L18.1668 7.56744L7.56356 18.1607C6.98103 18.7606 6.01547 18.7598 5.434 18.1581C4.85238 17.5671 4.85535 16.6304 5.44289 16.0429L16.0429 5.44289Z" clip-rule="evenodd" fill-rule="evenodd" undefined="1"></path>
<path fill="currentColor" d="M18.167 16.0429C18.7575 16.6334 18.7575 17.5766 18.167 18.1671C17.5764 18.7576 16.6333 18.7576 16.0428 18.1671L16.0424 18.1668L5.44921 7.56356C4.84925 6.98103 4.85008 6.01547 5.45172 5.434C6.04278 4.85238 6.97942 4.85535 7.56697 5.44289L18.167 16.0429Z" clip-rule="evenodd" fill-rule="evenodd" undefined="1"></path>
</svg>