<svg width="24" height="24" viewBox="0 0 24 24" fill="none" xmlns="http://www.w3.org/2000/svg" data-reactroot="">
<path fill="currentColor" d="M3.29289 3.29289C3.68342 2.90237 4.31658 2.90237 4.70711 3.29289L12.7071 11.2929C13.0976 11.6834 13.0976 12.3166 12.7071 12.7071L4.70711 20.7071C4.31658 21.0976 3.68342 21.0976 3.29289 20.7071C2.90237 20.3166 2.90237 19.6834 3.29289 19.2929L10.5858 12L3.29289 4.70711C2.90237 4.31658 2.90237 3.68342 3.29289 3.29289Z" clip-rule="evenodd" fill-rule="evenodd" undefined="1"></path>
<path fill="currentColor" d="M11.2929 3.29289C11.6834 2.90237 12.3166 2.90237 12.7071 3.29289L20.7071 11.2929C21.0976 11.6834 21.0976 12.3166 20.7071 12.7071L12.7071 20.7071C12.3166 21.0976 11.6834 21.0976 11.2929 20.7071C10.9024 20.3166 10.9024 19.6834 11.2929 19.2929L18.5858 12L11.2929 4.70711C10.9024 4.31658 10.9024 3.68342 11.2929 3.29289Z" clip-rule="evenodd" fill-rule="evenodd" undefined="1"></path>
</svg>